<svg width="223" height="209" viewBox="0 0 223 209" fill="none" xmlns="http://www.w3.org/2000/svg">
<path d="M164.286 158.116L52.3297 186.946C48.532 187.919 44.5033 187.346 41.1274 185.353C37.7515 183.36 35.3041 180.109 34.3222 176.313L0.463586 44.8293C-0.509791 41.0316 0.0629866 37.0029 2.05626 33.627C4.04954 30.2511 7.30054 27.8037 11.096 26.8217L115.253 0L141.913 11.9345L174.919 140.108C175.892 143.906 175.319 147.934 173.326 151.31C171.333 154.686 168.082 157.134 164.286 158.116Z" fill="#006E9D" fill-opacity="0.21"/>
<path d="M12.1559 30.9442C9.45303 31.6434 7.13792 33.3863 5.71846 35.7903C4.299 38.1944 3.89112 41.0633 4.58428 43.7678L38.4429 175.252C39.1422 177.955 40.885 180.27 43.2891 181.689C45.6931 183.109 48.5621 183.516 51.2665 182.823L163.223 153.993C165.926 153.294 168.241 151.551 169.66 149.147C171.08 146.743 171.488 143.874 170.795 141.17L138.3 14.9821L114.871 4.49377L12.1559 30.9442Z" fill="white"/>
<path d="M141.626 12.6128L124.299 17.0746C123.034 17.4003 121.692 17.2103 120.567 16.5462C119.442 15.8821 118.627 14.7983 118.302 13.5334L115.006 0.736126C114.992 0.680099 114.994 0.62114 115.011 0.566011C115.029 0.510882 115.061 0.461815 115.106 0.424435C115.15 0.387056 115.203 0.362877 115.261 0.354673C115.318 0.346469 115.376 0.354571 115.429 0.37805L141.674 12.0334C141.733 12.0593 141.782 12.1028 141.814 12.1578C141.847 12.2127 141.861 12.2765 141.856 12.3402C141.851 12.4039 141.826 12.4643 141.785 12.5132C141.743 12.562 141.688 12.5968 141.626 12.6128Z" fill="#006E9D" fill-opacity="0.21"/>
<path d="M132.511 124.897L81.5385 138.023C81.2253 138.104 80.8993 138.122 80.5791 138.076C80.259 138.031 79.9508 137.923 79.6724 137.759C79.3939 137.594 79.1506 137.377 78.9562 137.118C78.7619 136.86 78.6203 136.565 78.5397 136.252C78.4591 135.939 78.4409 135.613 78.4862 135.293C78.5316 134.973 78.6395 134.665 78.8039 134.386C78.9684 134.108 79.186 133.864 79.4445 133.67C79.7029 133.476 79.9971 133.334 80.3103 133.254L131.283 120.128C131.596 120.047 131.922 120.029 132.242 120.074C132.562 120.119 132.87 120.227 133.149 120.392C133.427 120.556 133.67 120.774 133.865 121.032C134.059 121.291 134.201 121.585 134.281 121.898C134.362 122.211 134.38 122.537 134.335 122.858C134.289 123.178 134.181 123.486 134.017 123.764C133.853 124.043 133.635 124.286 133.377 124.48C133.118 124.675 132.824 124.816 132.511 124.897Z" fill="#554343" fill-opacity="0.58"/>
<path d="M144.42 130.412L83.611 146.071C82.9785 146.234 82.3073 146.139 81.7449 145.807C81.1825 145.475 80.7751 144.933 80.6122 144.301C80.4494 143.668 80.5444 142.997 80.8765 142.435C81.2085 141.872 81.7504 141.465 82.3828 141.302L143.192 125.643C143.824 125.481 144.495 125.576 145.057 125.908C145.619 126.24 146.026 126.782 146.188 127.414C146.351 128.046 146.256 128.717 145.925 129.279C145.593 129.841 145.052 130.249 144.42 130.412Z" fill="#554343" fill-opacity="0.58"/>
<path d="M60.7345 153.832C65.5413 153.832 69.4379 149.935 69.4379 145.128C69.4379 140.322 65.5413 136.425 60.7345 136.425C55.9277 136.425 52.031 140.322 52.031 145.128C52.031 149.935 55.9277 153.832 60.7345 153.832Z" fill="#BAA392" fill-opacity="0.31"/>
<path d="M127.091 102.12L59.3948 119.546C57.4383 120.047 55.363 119.752 53.6239 118.725C51.8849 117.698 50.6243 116.023 50.1186 114.068L35.932 58.9559C35.4307 56.9995 35.726 54.9241 36.753 53.1851C37.78 51.4461 39.4549 50.1854 41.4102 49.6798L109.106 32.2537C111.063 31.7524 113.138 32.0476 114.877 33.0747C116.616 34.1017 117.877 35.7765 118.383 37.7318L132.569 92.8435C133.07 94.8 132.775 96.8753 131.748 98.6143C130.721 100.353 129.046 101.614 127.091 102.12Z" fill="white"/>
<path d="M127.091 102.12L59.3948 119.546C57.4383 120.047 55.363 119.752 53.6239 118.725C51.8849 117.698 50.6243 116.023 50.1186 114.068L35.932 58.9559C35.4307 56.9995 35.726 54.9241 36.753 53.1851C37.78 51.4461 39.4549 50.1854 41.4102 49.6798L109.106 32.2537C111.063 31.7524 113.138 32.0476 114.877 33.0747C116.616 34.1017 117.877 35.7765 118.383 37.7318L132.569 92.8435C133.07 94.8 132.775 96.8753 131.748 98.6143C130.721 100.353 129.046 101.614 127.091 102.12ZM41.6336 50.5476C39.9083 50.9938 38.4305 52.1062 37.5243 53.6406C36.6182 55.175 36.3576 57.0062 36.7999 58.7325L50.9865 113.844C51.4327 115.569 52.545 117.047 54.0795 117.953C55.6139 118.86 57.4451 119.12 59.1714 118.678L126.868 101.252C128.593 100.806 130.071 99.6933 130.977 98.1588C131.883 96.6244 132.144 94.7932 131.701 93.0669L117.515 37.9552C117.068 36.23 115.956 34.7521 114.422 33.846C112.887 32.9398 111.056 32.6793 109.33 33.1216L41.6336 50.5476Z" fill="#BAA392" fill-opacity="0.31"/>
<path d="M105.672 50.7843L71.5066 59.579C71.208 59.6624 70.8887 59.6292 70.6135 59.4863C70.3383 59.3433 70.1277 59.1012 70.0241 58.8089C69.9759 58.6562 69.9594 58.4953 69.9754 58.3359C69.9915 58.1766 70.0398 58.0222 70.1175 57.8822C70.1952 57.7422 70.3006 57.6195 70.4273 57.5216C70.554 57.4236 70.6993 57.3525 70.8544 57.3126L105.633 48.3601C107.037 49.0719 106.668 50.5279 105.672 50.7844L105.672 50.7843Z" fill="#006E9D" fill-opacity="0.21"/>
<path d="M107.214 56.7772L73.0491 65.5719C72.7504 65.6553 72.4312 65.6222 72.156 65.4792C71.8808 65.3363 71.6701 65.0942 71.5666 64.8018C71.5184 64.6491 71.5018 64.4882 71.5179 64.3289C71.534 64.1696 71.5823 64.0152 71.66 63.8752C71.7377 63.7351 71.8431 63.6124 71.9698 63.5145C72.0965 63.4165 72.2418 63.3454 72.3969 63.3055L107.175 54.353C108.58 55.0649 108.21 56.5208 107.214 56.7773L107.214 56.7772Z" fill="#006E9D" fill-opacity="0.21"/>
<path d="M66.5418 70.8852L56.1148 73.5693C55.7743 73.6566 55.4131 73.6052 55.1104 73.4264C54.8076 73.2476 54.5882 72.9561 54.5002 72.6157L51.3328 60.3111C51.2455 59.9706 51.2969 59.6093 51.4757 59.3066C51.6544 59.0039 51.946 58.7845 52.2864 58.6965L62.7133 56.0124C63.0538 55.9253 63.415 55.9767 63.7177 56.1554C64.0204 56.3342 64.2398 56.6257 64.3279 56.966L67.4953 69.2706C67.5826 69.6111 67.5312 69.9724 67.3525 70.2751C67.1737 70.5778 66.8821 70.7972 66.5418 70.8852V70.8852Z" fill="#BAA392" fill-opacity="0.31"/>
<path d="M110.274 69.0731L58.1311 82.4955C57.8325 82.5788 57.5132 82.5457 57.238 82.4028C56.9628 82.2598 56.7522 82.0177 56.6486 81.7254C56.6005 81.5727 56.5839 81.4118 56.5999 81.2524C56.616 81.0931 56.6643 80.9387 56.742 80.7987C56.8197 80.6587 56.9251 80.536 57.0518 80.438C57.1785 80.3401 57.3238 80.269 57.4789 80.2291L110.235 66.6488C111.64 67.3606 111.27 68.8166 110.274 69.0731L110.274 69.0731Z" fill="#006E9D" fill-opacity="0.21"/>
<path d="M111.817 75.0677L59.6744 88.4901C59.3757 88.5734 59.0565 88.5403 58.7813 88.3974C58.5061 88.2544 58.2954 88.0123 58.1919 87.72C58.1437 87.5673 58.1271 87.4064 58.1431 87.247C58.1592 87.0877 58.2076 86.9333 58.2852 86.7933C58.3629 86.6533 58.4683 86.5306 58.595 86.4326C58.7217 86.3347 58.867 86.2636 59.0221 86.2237L111.778 72.6434C113.183 73.3553 112.813 74.8112 111.817 75.0677V75.0677Z" fill="#006E9D" fill-opacity="0.21"/>
<path d="M113.359 81.0583L61.2164 94.4806C60.9177 94.564 60.5985 94.5309 60.3232 94.3879C60.048 94.245 59.8374 94.0029 59.7338 93.7106C59.6857 93.5579 59.6691 93.3969 59.6851 93.2376C59.7012 93.0783 59.7495 92.9239 59.8272 92.7839C59.9049 92.6439 60.0103 92.5212 60.137 92.4232C60.2637 92.3253 60.409 92.2542 60.5641 92.2142L113.32 78.634C114.725 79.3459 114.355 80.8018 113.359 81.0583Z" fill="#006E9D" fill-opacity="0.21"/>
<path d="M114.902 87.0524L62.7593 100.475C62.4606 100.558 62.1414 100.525 61.8662 100.382C61.591 100.239 61.3804 99.997 61.2768 99.7047C61.2286 99.552 61.2121 99.3911 61.2281 99.2317C61.2442 99.0724 61.2925 98.918 61.3702 98.778C61.4479 98.638 61.5533 98.5153 61.68 98.4173C61.8067 98.3194 61.952 98.2483 62.1071 98.2084L114.863 84.6282C116.268 85.34 115.898 86.796 114.902 87.0524L114.902 87.0524Z" fill="#006E9D" fill-opacity="0.21"/>
<path d="M116.444 93.0436L64.3016 106.466C64.0029 106.549 63.6837 106.516 63.4085 106.373C63.1333 106.23 62.9226 105.988 62.819 105.696C62.7709 105.543 62.7543 105.382 62.7703 105.223C62.7864 105.064 62.8348 104.909 62.9124 104.769C62.9901 104.629 63.0955 104.507 63.2222 104.409C63.3489 104.311 63.4942 104.24 63.6493 104.2L116.405 90.6194C117.81 91.3312 117.44 92.7872 116.444 93.0436Z" fill="#006E9D" fill-opacity="0.21"/>
<path d="M61.3766 148.179C61.1871 148.228 60.9867 148.214 60.8057 148.14L60.7945 148.135L58.4235 147.13C58.3135 147.083 58.2137 147.016 58.1299 146.93C58.0461 146.845 57.9799 146.744 57.9351 146.634C57.8904 146.523 57.8679 146.404 57.8689 146.285C57.87 146.165 57.8946 146.047 57.9414 145.937C57.9881 145.827 58.0561 145.728 58.1414 145.644C58.2267 145.56 58.3277 145.494 58.4385 145.45C58.5494 145.405 58.668 145.383 58.7874 145.384C58.9069 145.385 59.025 145.41 59.1349 145.457L60.6712 146.11L62.6845 141.374C62.7312 141.265 62.799 141.165 62.8842 141.081C62.9693 140.998 63.0701 140.932 63.1808 140.887C63.2914 140.843 63.4098 140.82 63.5291 140.821C63.6484 140.822 63.7664 140.847 63.8762 140.894L63.8765 140.894L63.8644 140.925L63.877 140.894C64.0986 140.988 64.2736 141.167 64.3637 141.39C64.4538 141.614 64.4516 141.864 64.3575 142.086L61.9889 147.654C61.934 147.783 61.8502 147.897 61.7441 147.987C61.6381 148.078 61.5125 148.143 61.3772 148.178L61.3766 148.179Z" fill="white"/>
<path d="M207.226 208.221H91.6175C87.6971 208.216 83.9385 206.657 81.1663 203.885C78.3941 201.112 76.8348 197.354 76.8303 193.433V57.66C76.8348 53.7396 78.3941 49.9809 81.1663 47.2088C83.9385 44.4366 87.6971 42.8772 91.6175 42.8728H199.173L222.014 61.0785V193.433C222.009 197.354 220.45 201.112 217.678 203.885C214.905 206.657 211.147 208.216 207.226 208.221Z" fill="#BAA392" fill-opacity="0.31"/>
<path d="M91.6174 47.1296C88.8256 47.1328 86.149 48.2432 84.1749 50.2174C82.2008 52.1915 81.0903 54.8681 81.0872 57.6599V193.433C81.0903 196.225 82.2008 198.902 84.1749 200.876C86.149 202.85 88.8256 203.961 91.6174 203.964H207.226C210.018 203.961 212.695 202.85 214.669 200.876C216.643 198.902 217.754 196.225 217.757 193.433V63.1292L197.684 47.1296H91.6174Z" fill="white"/>
<path d="M184.74 86.6088H132.105C131.452 86.6088 130.826 86.3493 130.364 85.8875C129.902 85.4257 129.643 84.7994 129.643 84.1463C129.643 83.4932 129.902 82.8669 130.364 82.4051C130.826 81.9433 131.452 81.6838 132.105 81.6838H184.74C185.394 81.6838 186.02 81.9433 186.482 82.4051C186.943 82.8669 187.203 83.4932 187.203 84.1463C187.203 84.7994 186.943 85.4257 186.482 85.8875C186.02 86.3493 185.394 86.6088 184.74 86.6088Z" fill="#C64B50" fill-opacity="0.69"/>
<path d="M194.898 94.9196H132.105C131.453 94.9187 130.827 94.6589 130.366 94.1971C129.905 93.7354 129.646 93.1096 129.646 92.4571C129.646 91.8046 129.905 91.1787 130.366 90.717C130.827 90.2553 131.453 89.9955 132.105 89.9946H194.898C195.222 89.9942 195.542 90.0576 195.841 90.1811C196.14 90.3047 196.412 90.486 196.641 90.7147C196.87 90.9434 197.052 91.215 197.176 91.514C197.3 91.813 197.364 92.1334 197.364 92.4571C197.364 92.7807 197.3 93.1012 197.176 93.4002C197.052 93.6992 196.87 93.9708 196.641 94.1995C196.412 94.4282 196.14 94.6095 195.841 94.7331C195.542 94.8566 195.222 94.92 194.898 94.9196Z" fill="#C64B50" fill-opacity="0.69"/>
<path d="M184.741 118.927H132.107C131.454 118.927 130.828 119.187 130.366 119.648C129.904 120.11 129.645 120.736 129.645 121.389C129.645 122.043 129.904 122.669 130.366 123.131C130.828 123.592 131.454 123.852 132.107 123.852H184.741C185.394 123.852 186.02 123.592 186.482 123.131C186.944 122.669 187.203 122.043 187.203 121.389C187.203 120.736 186.944 120.11 186.482 119.648C186.02 119.187 185.394 118.927 184.741 118.927Z" fill="#554343" fill-opacity="0.58"/>
<path d="M194.899 127.239H132.107C131.454 127.239 130.828 127.499 130.366 127.961C129.904 128.422 129.645 129.049 129.645 129.702C129.645 130.355 129.904 130.981 130.366 131.443C130.828 131.905 131.454 132.164 132.107 132.164H194.899C195.552 132.164 196.178 131.905 196.64 131.443C197.102 130.981 197.361 130.355 197.361 129.702C197.361 129.049 197.102 128.422 196.64 127.961C196.178 127.499 195.552 127.239 194.899 127.239Z" fill="#554343" fill-opacity="0.58"/>
<path d="M184.74 161.098H132.105C131.452 161.098 130.826 160.839 130.364 160.377C129.902 159.915 129.643 159.289 129.643 158.636C129.643 157.983 129.902 157.356 130.364 156.895C130.826 156.433 131.452 156.173 132.105 156.173H184.74C185.394 156.173 186.02 156.433 186.482 156.895C186.943 157.356 187.203 157.983 187.203 158.636C187.203 159.289 186.943 159.915 186.482 160.377C186.02 160.839 185.394 161.098 184.74 161.098Z" fill="#554343" fill-opacity="0.58"/>
<path d="M194.898 169.409H132.105C131.453 169.408 130.827 169.148 130.366 168.687C129.905 168.225 129.646 167.599 129.646 166.947C129.646 166.294 129.905 165.668 130.366 165.207C130.827 164.745 131.453 164.485 132.105 164.484H194.898C195.222 164.484 195.542 164.547 195.841 164.671C196.14 164.794 196.412 164.975 196.641 165.204C196.87 165.433 197.052 165.705 197.176 166.003C197.3 166.302 197.364 166.623 197.364 166.947C197.364 167.27 197.3 167.591 197.176 167.89C197.052 168.189 196.87 168.46 196.641 168.689C196.412 168.918 196.14 169.099 195.841 169.223C195.542 169.346 195.222 169.41 194.898 169.409Z" fill="#554343" fill-opacity="0.58"/>
<path d="M110.187 97.0053C114.993 97.0053 118.89 93.1086 118.89 88.3018C118.89 83.4951 114.993 79.5984 110.187 79.5984C105.38 79.5984 101.483 83.4951 101.483 88.3018C101.483 93.1086 105.38 97.0053 110.187 97.0053Z" fill="#C64B50" fill-opacity="0.69"/>
<path d="M109.324 91.6218C109.128 91.6222 108.938 91.5588 108.781 91.4414L108.771 91.4341L106.726 89.8694C106.631 89.7969 106.551 89.7063 106.491 89.6029C106.431 89.4995 106.392 89.3853 106.376 89.2668C106.361 89.1483 106.368 89.0279 106.399 88.9124C106.43 88.7969 106.483 88.6886 106.556 88.5938C106.629 88.4989 106.719 88.4193 106.823 88.3596C106.927 88.2998 107.041 88.2611 107.159 88.2455C107.278 88.23 107.398 88.238 107.514 88.2691C107.629 88.3002 107.737 88.3537 107.832 88.4266L109.157 89.4426L112.288 85.3582C112.36 85.2635 112.451 85.1841 112.554 85.1244C112.657 85.0647 112.771 85.0259 112.89 85.0103C113.008 84.9946 113.128 85.0025 113.243 85.0333C113.359 85.0641 113.467 85.1174 113.561 85.19L113.562 85.1902L113.542 85.2171L113.562 85.1902C113.753 85.337 113.878 85.5536 113.91 85.7925C113.941 86.0313 113.877 86.273 113.73 86.4643L110.048 91.2663C109.963 91.3769 109.853 91.4665 109.728 91.5279C109.602 91.5894 109.465 91.6212 109.325 91.6208L109.324 91.6218Z" fill="white"/>
<path d="M119.785 125.546C119.785 126.689 119.56 127.821 119.123 128.877C118.686 129.933 118.045 130.893 117.237 131.701C116.429 132.51 115.47 133.151 114.414 133.589C113.358 134.027 112.226 134.252 111.083 134.252C111.008 134.254 110.933 134.251 110.858 134.243C109.147 134.199 107.487 133.652 106.085 132.669C104.684 131.686 103.603 130.312 102.978 128.718C102.354 127.124 102.213 125.381 102.574 123.708C102.935 122.034 103.782 120.505 105.008 119.31C106.234 118.115 107.785 117.309 109.467 116.991C111.15 116.674 112.888 116.859 114.465 117.525C116.042 118.19 117.388 119.306 118.335 120.733C119.281 122.16 119.785 123.834 119.785 125.546Z" fill="#554343" fill-opacity="0.58"/>
<path d="M110.187 171.495C114.993 171.495 118.89 167.598 118.89 162.791C118.89 157.984 114.993 154.088 110.187 154.088C105.38 154.088 101.483 157.984 101.483 162.791C101.483 167.598 105.38 171.495 110.187 171.495Z" fill="#554343" fill-opacity="0.58"/>
<path d="M221.569 61.6643H203.677C202.37 61.6643 201.118 61.1455 200.194 60.2219C199.271 59.2983 198.752 58.0456 198.752 56.7394V43.5246C198.752 43.4667 198.768 43.4101 198.799 43.3611C198.829 43.312 198.873 43.2727 198.926 43.2475C198.978 43.2223 199.036 43.2123 199.093 43.2186C199.151 43.225 199.205 43.2474 199.251 43.2833L221.76 61.1153C221.81 61.1549 221.846 61.2092 221.864 61.2706C221.882 61.332 221.88 61.3974 221.859 61.4577C221.838 61.5181 221.799 61.5704 221.747 61.6074C221.695 61.6445 221.633 61.6643 221.569 61.6643Z" fill="#554343" fill-opacity="0.58"/>
<path d="M119.785 125.546C119.785 126.689 119.56 127.821 119.123 128.877C118.686 129.933 118.045 130.893 117.237 131.701C116.429 132.51 115.47 133.151 114.414 133.589C113.358 134.027 112.226 134.252 111.083 134.252C111.008 134.254 110.933 134.251 110.859 134.243C109.734 131.439 109.301 128.405 109.595 125.398C109.889 122.39 110.902 119.498 112.548 116.964C114.573 117.312 116.409 118.363 117.733 119.933C119.058 121.504 119.784 123.491 119.785 125.546Z" fill="#C64B50" fill-opacity="0.69"/>
<path d="M129.643 121.392C129.644 120.738 129.904 120.112 130.366 119.65C130.828 119.188 131.454 118.928 132.107 118.927H145.223C145.989 120.485 146.534 122.143 146.841 123.852H132.107C131.455 123.852 130.828 123.593 130.366 123.131C129.904 122.67 129.644 122.045 129.643 121.392Z" fill="#C64B50" fill-opacity="0.69"/>
<path d="M147.146 127.239C147.146 128.903 146.926 130.559 146.491 132.164H132.107C131.454 132.164 130.828 131.905 130.366 131.443C129.904 130.981 129.645 130.355 129.645 129.702C129.645 129.049 129.904 128.422 130.366 127.961C130.828 127.499 131.454 127.239 132.107 127.239H147.146Z" fill="#C64B50" fill-opacity="0.69"/>
<path d="M179.597 157.61C179.226 158.219 178.628 158.655 177.935 158.823C177.242 158.991 176.511 158.877 175.902 158.505L144.533 139.372C144.232 139.188 143.969 138.946 143.761 138.661C143.553 138.376 143.403 138.052 143.32 137.709C143.237 137.366 143.222 137.01 143.277 136.661C143.331 136.312 143.454 135.978 143.638 135.676C143.822 135.375 144.063 135.113 144.348 134.904C144.633 134.696 144.957 134.546 145.3 134.463C145.643 134.38 145.999 134.365 146.348 134.42C146.697 134.474 147.032 134.597 147.333 134.781L178.702 153.915C179.311 154.286 179.747 154.884 179.915 155.577C180.083 156.27 179.968 157.001 179.597 157.61Z" fill="#3F3D56"/>
<path d="M148.228 138.476C146.013 142.108 142.771 145.001 138.911 146.79C135.052 148.579 130.748 149.184 126.545 148.527C122.342 147.87 118.428 145.982 115.299 143.101C112.169 140.219 109.964 136.475 108.962 132.34C107.961 128.206 108.207 123.867 109.672 119.873C111.136 115.879 113.751 112.409 117.188 109.901C120.624 107.394 124.727 105.962 128.977 105.786C133.228 105.61 137.435 106.699 141.066 108.914C145.931 111.889 149.418 116.672 150.76 122.214C152.103 127.756 151.192 133.605 148.228 138.476ZM116.094 118.876C114.433 121.6 113.617 124.755 113.748 127.943C113.88 131.131 114.954 134.208 116.835 136.785C118.716 139.362 121.318 141.324 124.314 142.422C127.31 143.52 130.563 143.705 133.664 142.954C136.765 142.203 139.574 140.549 141.734 138.202C143.895 135.854 145.312 132.919 145.804 129.767C146.297 126.614 145.844 123.387 144.502 120.492C143.16 117.598 140.99 115.166 138.266 113.504C134.613 111.281 130.226 110.598 126.07 111.605C121.913 112.612 118.326 115.227 116.094 118.876Z" fill="#3F3D56"/>
</svg>
