<svg width="727" height="464" viewBox="0 0 727 464" fill="none" xmlns="http://www.w3.org/2000/svg">
<g clip-path="url(#clip0_180_289)">
<path d="M543.017 0H167.568C166.137 0.00158756 164.765 0.570661 163.754 1.58238C162.742 2.59409 162.173 3.96582 162.171 5.3966V259.808C162.173 261.238 162.742 262.61 163.754 263.622C164.765 264.633 166.137 265.203 167.568 265.204H543.017C544.448 265.203 545.819 264.633 546.831 263.622C547.843 262.61 548.412 261.238 548.413 259.808V5.3966C548.412 3.96582 547.843 2.59409 546.831 1.58238C545.819 0.570661 544.448 0.00158756 543.017 0ZM546.872 259.808C546.871 260.83 546.465 261.81 545.742 262.533C545.019 263.256 544.039 263.662 543.017 263.662H167.568C166.546 263.662 165.566 263.256 164.843 262.533C164.12 261.81 163.714 260.83 163.713 259.808V5.3966C163.714 4.37439 164.12 3.39417 164.843 2.67136C165.566 1.94855 166.546 1.54229 167.568 1.54188H543.017C544.039 1.54229 545.019 1.94855 545.742 2.67136C546.465 3.39417 546.871 4.37439 546.872 5.3966V259.808Z" fill="#85502A" fill-opacity="0.44"/>
<path d="M547.643 21.6172H162.943V23.1591H547.643V21.6172Z" fill="#85502A" fill-opacity="0.44"/>
<path d="M176.048 16.1898C178.603 16.1898 180.674 14.1188 180.674 11.5641C180.674 9.00945 178.603 6.93848 176.048 6.93848C173.494 6.93848 171.423 9.00945 171.423 11.5641C171.423 14.1188 173.494 16.1898 176.048 16.1898Z" fill="#85502A" fill-opacity="0.44"/>
<path d="M189.347 16.1898C191.902 16.1898 193.973 14.1188 193.973 11.5641C193.973 9.00945 191.902 6.93848 189.347 6.93848C186.792 6.93848 184.721 9.00945 184.721 11.5641C184.721 14.1188 186.792 16.1898 189.347 16.1898Z" fill="#85502A" fill-opacity="0.44"/>
<path d="M202.646 16.1898C205.201 16.1898 207.272 14.1188 207.272 11.5641C207.272 9.00945 205.201 6.93848 202.646 6.93848C200.091 6.93848 198.02 9.00945 198.02 11.5641C198.02 14.1188 200.091 16.1898 202.646 16.1898Z" fill="#85502A" fill-opacity="0.44"/>
<path d="M478.012 244.736C472.197 244.736 466.513 243.012 461.677 239.781C456.842 236.55 453.074 231.958 450.848 226.586C448.623 221.213 448.041 215.301 449.175 209.598C450.31 203.895 453.11 198.656 457.222 194.544C461.334 190.432 466.573 187.631 472.276 186.497C477.98 185.362 483.891 185.945 489.264 188.17C494.636 190.395 499.228 194.164 502.459 198.999C505.69 203.834 507.414 209.519 507.414 215.334C507.405 223.129 504.305 230.603 498.793 236.115C493.281 241.627 485.807 244.727 478.012 244.736ZM478.012 187.96C472.598 187.96 467.306 189.565 462.804 192.573C458.302 195.581 454.794 199.856 452.722 204.858C450.65 209.86 450.108 215.364 451.164 220.675C452.22 225.985 454.827 230.862 458.656 234.691C462.484 238.519 467.362 241.126 472.672 242.182C477.982 243.239 483.486 242.697 488.488 240.625C493.49 238.553 497.765 235.044 500.773 230.542C503.781 226.041 505.386 220.748 505.386 215.334C505.378 208.076 502.491 201.119 497.36 195.987C492.228 190.855 485.27 187.968 478.012 187.96Z" fill="#85502A" fill-opacity="0.44"/>
<path d="M231.514 165.99C225.698 165.99 220.014 164.266 215.179 161.035C210.344 157.804 206.575 153.212 204.35 147.84C202.124 142.467 201.542 136.555 202.677 130.852C203.811 125.148 206.611 119.909 210.723 115.797C214.835 111.686 220.074 108.885 225.778 107.751C231.481 106.616 237.393 107.199 242.765 109.424C248.138 111.649 252.73 115.418 255.96 120.253C259.191 125.088 260.916 130.773 260.916 136.588C260.907 144.383 257.806 151.857 252.294 157.369C246.782 162.881 239.309 165.981 231.514 165.99ZM231.514 109.214C226.099 109.214 220.807 110.819 216.305 113.827C211.804 116.835 208.295 121.11 206.223 126.112C204.151 131.114 203.609 136.618 204.665 141.928C205.722 147.239 208.329 152.116 212.157 155.945C215.985 159.773 220.863 162.38 226.173 163.436C231.483 164.493 236.987 163.95 241.989 161.879C246.991 159.807 251.267 156.298 254.274 151.796C257.282 147.295 258.888 142.002 258.888 136.588C258.88 129.33 255.993 122.372 250.861 117.24C245.729 112.108 238.771 109.222 231.514 109.214Z" fill="#85502A" fill-opacity="0.44"/>
<path d="M242.935 152.174C242.165 152.174 241.427 151.869 240.882 151.325C240.337 150.781 240.03 150.043 240.029 149.273V132.776C240.03 132.007 240.336 131.27 240.88 130.726C241.423 130.182 242.161 129.877 242.93 129.876H242.935C243.704 129.877 244.441 130.182 244.985 130.726C245.529 131.27 245.835 132.007 245.836 132.776V149.273C245.835 150.042 245.529 150.78 244.985 151.324C244.441 151.867 243.704 152.173 242.935 152.174ZM235.361 152.174C234.977 152.178 234.596 152.106 234.24 151.962C233.884 151.818 233.56 151.605 233.286 151.336C233.013 151.066 232.796 150.745 232.647 150.391C232.498 150.037 232.42 149.657 232.419 149.273V140.387C232.419 139.618 232.725 138.881 233.269 138.337C233.813 137.793 234.55 137.487 235.319 137.486H235.361C236.13 137.487 236.867 137.793 237.411 138.337C237.955 138.881 238.261 139.618 238.262 140.387V149.273C238.261 150.042 237.955 150.78 237.411 151.324C236.867 151.867 236.13 152.173 235.361 152.174ZM227.714 152.174C226.944 152.174 226.206 151.869 225.661 151.325C225.116 150.781 224.809 150.043 224.808 149.273V123.902C224.809 123.133 225.115 122.396 225.659 121.852C226.202 121.308 226.94 121.003 227.709 121.002H227.714C228.483 121.003 229.22 121.308 229.764 121.852C230.308 122.396 230.614 123.133 230.615 123.902V149.273C230.614 150.042 230.308 150.78 229.764 151.324C229.22 151.867 228.483 152.173 227.714 152.174ZM220.096 152.174C219.714 152.175 219.337 152.1 218.984 151.954C218.632 151.808 218.312 151.594 218.042 151.325C217.772 151.055 217.558 150.735 217.413 150.383C217.267 150.03 217.192 149.653 217.192 149.271L217.195 145.461C217.196 144.691 217.502 143.954 218.046 143.41C218.59 142.866 219.328 142.561 220.097 142.561C220.866 142.562 221.604 142.868 222.148 143.412C222.692 143.956 222.997 144.694 222.997 145.463V149.273C222.996 150.042 222.69 150.78 222.146 151.324C221.602 151.867 220.865 152.173 220.096 152.174Z" fill="#B80007" fill-opacity="0.67"/>
<path d="M275.333 340.969C269.518 340.969 263.833 339.245 258.998 336.014C254.163 332.783 250.394 328.191 248.169 322.819C245.944 317.446 245.362 311.534 246.496 305.831C247.63 300.127 250.431 294.888 254.543 290.776C258.655 286.664 263.893 283.864 269.597 282.73C275.3 281.595 281.212 282.177 286.585 284.403C291.957 286.628 296.549 290.397 299.78 295.232C303.01 300.067 304.735 305.752 304.735 311.567C304.726 319.362 301.625 326.835 296.113 332.348C290.601 337.86 283.128 340.96 275.333 340.969ZM275.333 284.192C269.919 284.192 264.626 285.798 260.125 288.806C255.623 291.814 252.114 296.089 250.043 301.091C247.971 306.093 247.429 311.597 248.485 316.907C249.541 322.217 252.148 327.095 255.976 330.923C259.805 334.752 264.682 337.359 269.992 338.415C275.303 339.471 280.807 338.929 285.809 336.857C290.811 334.786 295.086 331.277 298.094 326.775C301.102 322.274 302.707 316.981 302.707 311.567C302.699 304.309 299.812 297.351 294.68 292.219C289.548 287.087 282.59 284.201 275.333 284.192Z" fill="#85502A" fill-opacity="0.44"/>
<path d="M283.439 306.464L277.706 315.229C278.167 315.788 278.417 316.49 278.415 317.214C278.413 318.05 278.08 318.851 277.489 319.441C276.898 320.032 276.096 320.363 275.261 320.363C274.425 320.363 273.624 320.032 273.033 319.441C272.441 318.851 272.109 318.05 272.107 317.214C272.109 317.012 272.127 316.809 272.162 316.609L268.379 314.406C267.89 314.879 267.261 315.18 266.587 315.265C265.912 315.351 265.228 315.215 264.638 314.878L260.612 318.649V322.408C260.614 323.151 260.91 323.864 261.435 324.39C261.96 324.916 262.672 325.213 263.415 325.217H287.246C287.99 325.213 288.702 324.917 289.228 324.39C289.754 323.864 290.051 323.152 290.055 322.408V308.468L286.205 305.907C285.818 306.208 285.367 306.414 284.887 306.511C284.407 306.608 283.911 306.592 283.439 306.464H283.439Z" fill="#B80007" fill-opacity="0.67"/>
<path d="M266.193 309.006C267.03 309.006 267.832 309.339 268.423 309.93C269.015 310.521 269.347 311.324 269.347 312.16V312.566L273.294 314.775C273.857 314.313 274.563 314.06 275.291 314.061C275.521 314.062 275.75 314.087 275.975 314.133L281.719 305.241C281.433 304.838 281.245 304.373 281.172 303.884C281.099 303.394 281.142 302.895 281.299 302.425C281.455 301.956 281.721 301.53 282.073 301.183C282.425 300.835 282.854 300.576 283.326 300.426C283.797 300.275 284.298 300.239 284.786 300.319C285.274 300.398 285.737 300.592 286.136 300.885C286.535 301.177 286.86 301.56 287.083 302.001C287.306 302.443 287.422 302.931 287.421 303.425C287.421 303.676 287.393 303.926 287.337 304.17L290.054 305.986V300.726C290.051 299.982 289.754 299.269 289.228 298.743C288.702 298.217 287.99 297.92 287.246 297.917H263.415C262.672 297.92 261.96 298.217 261.435 298.744C260.91 299.27 260.614 299.982 260.612 300.726V315.792L263.239 313.274C263.064 312.798 263.006 312.287 263.07 311.783C263.135 311.28 263.32 310.8 263.61 310.384C263.9 309.968 264.287 309.628 264.737 309.394C265.186 309.159 265.686 309.036 266.193 309.037V309.006Z" fill="#B80007" fill-opacity="0.67"/>
<path d="M356.459 165.99C350.644 165.99 344.959 164.266 340.124 161.035C335.289 157.804 331.52 153.212 329.295 147.84C327.069 142.467 326.487 136.555 327.622 130.852C328.756 125.148 331.556 119.909 335.668 115.797C339.78 111.686 345.019 108.885 350.723 107.751C356.426 106.616 362.338 107.199 367.711 109.424C373.083 111.649 377.675 115.418 380.906 120.253C384.137 125.088 385.861 130.773 385.861 136.588C385.852 144.383 382.752 151.857 377.24 157.369C371.728 162.881 364.254 165.981 356.459 165.99ZM356.459 109.214C351.045 109.214 345.752 110.819 341.25 113.827C336.749 116.835 333.24 121.11 331.168 126.112C329.096 131.114 328.554 136.618 329.61 141.928C330.667 147.239 333.274 152.116 337.102 155.945C340.931 159.773 345.808 162.38 351.118 163.436C356.428 164.493 361.933 163.95 366.935 161.879C371.937 159.807 376.212 156.298 379.22 151.796C382.228 147.295 383.833 142.002 383.833 136.588C383.825 129.33 380.938 122.372 375.806 117.24C370.675 112.108 363.716 109.222 356.459 109.214Z" fill="#85502A" fill-opacity="0.44"/>
<path d="M340.838 147.246C340.416 147.246 340.002 147.121 339.651 146.886C339.3 146.651 339.026 146.318 338.864 145.927C338.702 145.537 338.659 145.108 338.741 144.693C338.823 144.279 339.026 143.898 339.324 143.598L350.188 132.704C350.357 132.534 350.558 132.398 350.78 132.306C351.002 132.214 351.24 132.167 351.48 132.168H351.481C351.721 132.167 351.959 132.214 352.18 132.306C352.402 132.397 352.603 132.532 352.772 132.702L357.811 137.741C357.912 137.843 358.033 137.924 358.166 137.979C358.299 138.034 358.441 138.062 358.585 138.062H358.586C358.73 138.062 358.872 138.034 359.005 137.979C359.138 137.924 359.259 137.843 359.36 137.74L366.474 130.615C366.508 130.581 366.535 130.541 366.553 130.496C366.571 130.452 366.581 130.405 366.581 130.357C366.581 130.309 366.571 130.261 366.553 130.217C366.534 130.173 366.507 130.132 366.473 130.098L364.172 127.801C364.018 127.648 363.914 127.452 363.871 127.24C363.829 127.027 363.851 126.807 363.933 126.607C364.016 126.406 364.157 126.235 364.337 126.115C364.517 125.994 364.729 125.93 364.946 125.93H373.121C373.411 125.93 373.69 126.046 373.895 126.251C374.1 126.456 374.216 126.735 374.216 127.025V135.195C374.216 135.412 374.152 135.624 374.032 135.804C373.911 135.984 373.74 136.125 373.54 136.207C373.34 136.29 373.12 136.312 372.907 136.27C372.695 136.228 372.499 136.123 372.346 135.97L370.041 133.665C370.007 133.631 369.967 133.604 369.923 133.586C369.878 133.567 369.831 133.558 369.783 133.558C369.735 133.558 369.687 133.567 369.643 133.586C369.599 133.604 369.558 133.631 369.525 133.665L359.892 143.291C359.723 143.461 359.522 143.596 359.3 143.688C359.078 143.779 358.841 143.826 358.601 143.826H358.601C358.361 143.826 358.123 143.779 357.902 143.687C357.68 143.596 357.479 143.461 357.31 143.291L352.269 138.25C352.06 138.05 351.783 137.939 351.494 137.939C351.206 137.939 350.928 138.05 350.72 138.25L342.35 146.619C342.152 146.819 341.916 146.977 341.657 147.084C341.397 147.192 341.119 147.247 340.838 147.246Z" fill="#B80007" fill-opacity="0.67"/>
<path d="M356.459 243.084C350.644 243.084 344.959 241.36 340.124 238.129C335.289 234.898 331.52 230.306 329.295 224.934C327.069 219.561 326.487 213.649 327.622 207.946C328.756 202.243 331.556 197.004 335.668 192.892C339.78 188.78 345.019 185.979 350.723 184.845C356.426 183.71 362.338 184.293 367.711 186.518C373.083 188.743 377.675 192.512 380.906 197.347C384.137 202.182 385.861 207.867 385.861 213.682C385.852 221.477 382.752 228.951 377.24 234.463C371.728 239.975 364.254 243.075 356.459 243.084Z" fill="#E6E6E6"/>
<path d="M478.268 163.677C472.453 163.677 466.768 161.953 461.933 158.722C457.098 155.491 453.329 150.899 451.104 145.527C448.878 140.154 448.296 134.242 449.431 128.539C450.565 122.836 453.365 117.597 457.477 113.485C461.589 109.373 466.828 106.572 472.532 105.438C478.235 104.303 484.147 104.886 489.52 107.111C494.892 109.336 499.484 113.105 502.715 117.94C505.946 122.775 507.67 128.46 507.67 134.275C507.662 142.07 504.561 149.544 499.049 155.056C493.537 160.568 486.063 163.668 478.268 163.677Z" fill="#E6E6E6"/>
<path d="M231.515 184.279C226.468 184.286 221.507 185.587 217.106 188.057C223.466 188.619 229.43 191.386 233.966 195.88C238.502 200.373 241.325 206.31 241.947 212.665C242.569 219.019 240.95 225.391 237.372 230.679C233.793 235.967 228.479 239.838 222.348 241.622C223.497 242.003 224.668 242.309 225.856 242.54C227.72 242.906 229.615 243.09 231.515 243.087C239.313 243.087 246.792 239.989 252.307 234.475C257.821 228.96 260.919 221.482 260.919 213.683C260.919 205.885 257.821 198.406 252.307 192.892C246.792 187.377 239.313 184.279 231.515 184.279Z" fill="#E6E6E6"/>
<path d="M220.359 186.484C218.496 186.111 216.6 185.925 214.7 185.929C207.14 185.921 199.867 188.823 194.388 194.032C188.909 199.241 185.645 206.359 185.271 213.91C184.898 221.461 187.444 228.866 192.382 234.59C197.321 240.315 204.272 243.919 211.796 244.658C219.32 245.396 226.84 243.21 232.796 238.554C238.753 233.899 242.689 227.13 243.79 219.65C244.891 212.171 243.072 204.554 238.71 198.38C234.348 192.205 227.777 187.946 220.359 186.484ZM222.348 241.622C218.583 242.717 214.626 242.991 210.746 242.424C206.865 241.858 203.152 240.464 199.857 238.338C196.562 236.211 193.762 233.402 191.647 230.1C189.532 226.797 188.151 223.079 187.598 219.197C187.045 215.315 187.332 211.359 188.44 207.597C189.549 203.835 191.452 200.356 194.022 197.394C196.592 194.431 199.768 192.056 203.335 190.428C206.903 188.8 210.779 187.957 214.7 187.957C215.51 187.957 216.312 187.995 217.106 188.057C223.466 188.619 229.429 191.386 233.965 195.88C238.501 200.373 241.324 206.31 241.946 212.665C242.568 219.019 240.95 225.391 237.371 230.679C233.793 235.967 228.479 239.838 222.348 241.622Z" fill="#85502A" fill-opacity="0.44"/>
<path d="M231.82 210.157C230.848 205.898 228.226 202.198 224.528 199.87C220.831 197.542 216.361 196.776 212.1 197.741C211.683 197.836 211.252 197.953 210.873 198.07L214.802 215.336L232.068 211.414C231.995 211.012 231.915 210.574 231.82 210.157Z" fill="#B80007" fill-opacity="0.67"/>
<path d="M230.148 214.445L212.874 218.367L208.952 201.101C205.94 202.033 203.259 203.808 201.226 206.218C199.193 208.627 197.893 211.569 197.481 214.694C197.069 217.82 197.562 220.998 198.901 223.852C200.241 226.706 202.37 229.116 205.038 230.796C207.705 232.477 210.798 233.357 213.951 233.333C217.103 233.309 220.182 232.381 222.824 230.66C225.465 228.939 227.558 226.497 228.853 223.623C230.149 220.749 230.593 217.564 230.133 214.445H230.148Z" fill="#B80007" fill-opacity="0.67"/>
<path d="M533.676 352.668C527.861 352.668 522.176 350.944 517.341 347.713C512.506 344.482 508.737 339.89 506.512 334.518C504.287 329.145 503.704 323.233 504.839 317.53C505.973 311.826 508.774 306.588 512.885 302.476C516.997 298.364 522.236 295.563 527.94 294.429C533.643 293.294 539.555 293.877 544.928 296.102C550.3 298.327 554.892 302.096 558.123 306.931C561.354 311.766 563.078 317.451 563.078 323.266C563.069 331.061 559.969 338.535 554.457 344.047C548.945 349.559 541.471 352.659 533.676 352.668ZM533.676 295.892C528.262 295.892 522.969 297.497 518.468 300.505C513.966 303.513 510.457 307.788 508.385 312.79C506.313 317.792 505.771 323.296 506.828 328.606C507.884 333.917 510.491 338.794 514.319 342.623C518.148 346.451 523.025 349.058 528.335 350.114C533.646 351.171 539.15 350.628 544.152 348.557C549.154 346.485 553.429 342.976 556.437 338.474C559.445 333.973 561.05 328.68 561.05 323.266C561.042 316.008 558.155 309.05 553.023 303.918C547.891 298.787 540.933 295.9 533.676 295.892Z" fill="#85502A" fill-opacity="0.44"/>
<path d="M546.362 335.047C545.286 335.047 544.234 334.729 543.339 334.132C542.444 333.534 541.746 332.685 541.333 331.691C540.921 330.697 540.812 329.603 541.021 328.548C541.231 327.492 541.748 326.522 542.509 325.761C543.269 324.999 544.238 324.48 545.294 324.269C546.349 324.059 547.443 324.166 548.438 324.577C549.432 324.988 550.282 325.685 550.881 326.579C551.479 327.474 551.799 328.526 551.8 329.602C551.8 331.045 551.228 332.429 550.208 333.45C549.188 334.471 547.805 335.045 546.362 335.047ZM533.676 335.047C532.234 335.045 530.852 334.472 529.833 333.452C528.814 332.433 528.24 331.051 528.239 329.609V316.923C528.24 315.482 528.814 314.1 529.834 313.082C530.853 312.063 532.235 311.491 533.676 311.491C535.117 311.491 536.499 312.063 537.519 313.082C538.538 314.1 539.112 315.482 539.114 316.923V329.609C539.112 331.051 538.538 332.433 537.519 333.452C536.5 334.472 535.118 335.045 533.676 335.047ZM520.993 335.047C519.551 335.045 518.168 334.471 517.148 333.451C516.128 332.431 515.554 331.048 515.552 329.605V324.537C515.552 323.093 516.126 321.709 517.146 320.689C518.166 319.669 519.55 319.095 520.993 319.095C522.437 319.095 523.821 319.669 524.841 320.689C525.861 321.709 526.435 323.093 526.435 324.537V329.605C526.433 331.048 525.859 332.431 524.839 333.451C523.819 334.471 522.436 335.045 520.993 335.047Z" fill="#B80007" fill-opacity="0.67"/>
<path d="M160.842 455.178L169.804 454.161L170.146 419.109L156.919 420.61L160.842 455.178Z" fill="#A0616A"/>
<path d="M188.032 460.52L159.866 463.716L158.631 452.834L175.915 450.873C178.801 450.546 181.699 451.378 183.971 453.187C186.244 454.997 187.704 457.634 188.032 460.52L188.032 460.52Z" fill="#2F2E41"/>
<path d="M68.6765 454.618L77.6957 454.617L81.986 419.828L68.6749 419.829L68.6765 454.618Z" fill="#A0616A"/>
<path d="M95.0902 462.991L66.7438 462.992L66.7433 452.04L84.1377 452.04C87.0423 452.04 89.8281 453.193 91.8821 455.247C93.9361 457.301 95.0901 460.086 95.0902 462.991L95.0902 462.991Z" fill="#2F2E41"/>
<path d="M133.388 299.044L138.538 315.795L166.493 376.291L173.85 433.674L156.93 434.41L146.63 381.441L111.317 343.185L80.4187 443.238L66.4408 441.766C66.4408 441.766 78.2117 312.287 94.3967 299.044C94.3967 299.044 120.881 286.538 133.388 299.044Z" fill="#2F2E41"/>
<path d="M110.544 226.766C120.523 226.766 128.613 218.677 128.613 208.697C128.613 198.718 120.523 190.628 110.544 190.628C100.565 190.628 92.4749 198.718 92.4749 208.697C92.4749 218.677 100.565 226.766 110.544 226.766Z" fill="#A0616A"/>
<path d="M135.227 302.355C135.227 302.355 137.434 227.315 106.535 232.465C75.6367 237.615 88.5111 310.08 88.5111 310.08C88.5111 310.08 95.1322 323.322 111.317 308.608C127.502 293.895 135.227 302.355 135.227 302.355Z" fill="#554343"/>
<path d="M199.195 239.896C198.615 240.808 197.842 241.583 196.93 242.165C196.018 242.746 194.99 243.121 193.918 243.262C192.846 243.404 191.755 243.308 190.724 242.982C189.693 242.657 188.745 242.109 187.949 241.378L164.804 253.847L166.016 240.239L187.808 230.485C189.126 229.228 190.858 228.498 192.678 228.433C194.498 228.368 196.278 228.973 197.682 230.133C199.085 231.293 200.015 232.927 200.293 234.727C200.572 236.526 200.182 238.365 199.195 239.896L199.195 239.896Z" fill="#A0616A"/>
<path d="M110.371 241.627L147.94 247.977L181.607 232.084L186.719 243.014L149.863 266.489C149.863 266.489 110.844 269.139 101.822 258.849C98.4395 254.99 98.0528 251.478 98.8909 248.595C99.625 246.233 101.197 244.221 103.312 242.937C105.426 241.654 107.937 241.188 110.371 241.627Z" fill="#554343"/>
<path d="M108.395 227.683C108.481 227.606 108.548 227.51 108.591 227.402C108.633 227.294 108.65 227.178 108.64 227.062C108.63 226.947 108.593 226.835 108.532 226.737C108.471 226.638 108.388 226.555 108.29 226.494C106.685 225.5 105.378 224.093 104.505 222.419C103.632 220.746 103.226 218.868 103.33 216.984C103.434 215.099 104.043 213.278 105.094 211.71C106.144 210.142 107.598 208.886 109.302 208.074C114.614 205.542 121.813 207.512 125.74 202.645C126.539 201.604 127.104 200.402 127.396 199.123C127.688 197.843 127.701 196.516 127.434 195.231C126.587 190.634 123.131 187.22 119.261 184.881C114.506 182.006 109.042 180.521 103.487 180.594C97.9314 180.666 92.5076 182.293 87.8295 185.289C83.1515 188.286 79.4063 192.533 77.0183 197.549C74.6303 202.566 73.695 208.15 74.3183 213.671C74.8179 218.095 76.1831 223.057 73.5523 226.649C71.2368 229.81 66.8663 230.403 63.027 231.189C54.7924 232.874 46.8481 236.761 41.26 243.039C35.6718 249.318 32.6907 258.127 34.3756 266.361C36.0604 274.596 42.8198 281.833 51.1275 283.109C57.8897 284.148 64.872 281.276 69.8378 276.57C74.8035 271.864 77.9424 265.509 79.9222 258.96C82.2721 251.188 83.199 242.812 87.4415 235.888C91.593 229.113 100.54 224.256 107.551 227.784C107.686 227.855 107.838 227.882 107.989 227.864C108.139 227.846 108.281 227.783 108.395 227.683Z" fill="#2F2E41"/>
<path d="M488.806 227.669H467.22C466.606 227.669 466.018 227.425 465.584 226.992C465.15 226.558 464.907 225.97 464.907 225.356C464.907 224.743 465.15 224.155 465.584 223.721C466.018 223.287 466.606 223.043 467.22 223.043H488.806C489.419 223.043 490.008 223.287 490.441 223.721C490.875 224.155 491.119 224.743 491.119 225.356C491.119 225.97 490.875 226.558 490.441 226.992C490.008 227.425 489.419 227.669 488.806 227.669Z" fill="#B80007" fill-opacity="0.67"/>
<path d="M488.806 217.647H467.22C466.606 217.647 466.018 217.403 465.584 216.97C465.15 216.536 464.907 215.948 464.907 215.334C464.907 214.721 465.15 214.132 465.584 213.699C466.018 213.265 466.606 213.021 467.22 213.021H488.806C489.419 213.021 490.008 213.265 490.441 213.699C490.875 214.132 491.119 214.721 491.119 215.334C491.119 215.948 490.875 216.536 490.441 216.97C490.008 217.403 489.419 217.647 488.806 217.647Z" fill="#B80007" fill-opacity="0.67"/>
<path d="M488.806 207.625H467.22C466.606 207.625 466.018 207.381 465.584 206.947C465.15 206.513 464.907 205.925 464.907 205.312C464.907 204.698 465.15 204.11 465.584 203.676C466.018 203.243 466.606 202.999 467.22 202.999H488.806C489.419 202.999 490.008 203.243 490.441 203.676C490.875 204.11 491.119 204.698 491.119 205.312C491.119 205.925 490.875 206.513 490.441 206.947C490.008 207.381 489.419 207.625 488.806 207.625Z" fill="#B80007" fill-opacity="0.67"/>
<path d="M313.26 61.282C312.887 61.282 312.668 61.0838 312.604 60.6873C312.522 60.186 312.44 59.4796 312.358 58.5681L312.126 56.449C312.08 56.1346 312.003 55.8269 311.893 55.5262C311.738 55.116 311.57 54.9109 311.387 54.9109C311.219 54.9109 310.904 55.0545 310.444 55.3416C310.006 55.6059 309.719 55.8178 309.583 55.9773C309.578 56.4057 309.589 56.8341 309.617 57.2625L309.822 59.0877C309.908 59.8077 309.952 60.4025 309.952 60.8719C309.952 61.0724 309.888 61.2364 309.76 61.364C309.637 61.4962 309.478 61.5623 309.282 61.5623C309.086 61.5623 308.924 61.4962 308.797 61.364C308.673 61.2364 308.612 61.0724 308.612 60.8719C308.612 60.3204 308.555 59.5069 308.441 58.4314C308.332 57.3513 308.277 56.5356 308.277 55.9842C308.277 55.5011 308.209 55.1251 308.072 54.8562C307.753 55.0021 307.429 55.239 307.101 55.5672L306.295 56.4695C306.222 56.5789 306.105 56.7224 305.946 56.9002C305.946 57.1736 305.921 57.5769 305.871 58.1101C305.821 58.6433 305.796 59.0375 305.796 59.2928C305.796 59.4295 305.816 59.6209 305.857 59.867C305.903 60.1131 305.925 60.2908 305.925 60.4002C305.925 60.587 305.855 60.7443 305.714 60.8719C305.577 60.9995 305.415 61.0633 305.228 61.0633C304.713 61.0633 304.456 60.4777 304.456 59.3064C304.456 59.033 304.481 58.6251 304.531 58.0828C304.581 57.5405 304.606 57.1326 304.606 56.8592C304.606 56.6176 304.583 56.2553 304.538 55.7722C304.497 55.2892 304.476 54.9246 304.476 54.6785C304.476 53.644 304.709 53.1267 305.173 53.1267C305.351 53.1267 305.513 53.2042 305.659 53.3592C305.809 53.5141 305.884 53.6827 305.884 53.865C305.884 53.9516 305.873 54.086 305.85 54.2683C305.827 54.4506 305.816 54.5896 305.816 54.6853L305.83 55.4031C306.067 54.9155 306.415 54.4757 306.876 54.0838C307.336 53.6873 307.728 53.489 308.051 53.489C308.767 53.489 309.259 53.8445 309.528 54.5555C309.779 54.2228 310.077 53.9744 310.423 53.8103C310.77 53.6417 311.166 53.5574 311.613 53.5574C312.374 53.5574 312.894 53.9676 313.172 54.7879C313.226 54.9519 313.32 55.5922 313.452 56.7088C313.579 57.4926 313.743 58.7983 313.944 60.6258C313.958 60.8081 313.896 60.963 313.759 61.0906C313.623 61.2182 313.456 61.282 313.26 61.282ZM321.422 54.617L319.057 59.7303C318.474 60.9744 318.027 62.0157 317.717 62.8543L317.266 64.1805C317.148 64.5086 316.943 64.6726 316.651 64.6726C316.46 64.6726 316.293 64.6088 316.152 64.4812C316.015 64.3582 315.947 64.2032 315.947 64.0164C315.947 63.5607 316.439 62.2413 317.423 60.0584L314.976 55.3484L314.669 54.8494C314.546 54.6398 314.484 54.4643 314.484 54.323C314.484 54.1362 314.555 53.9721 314.696 53.8308C314.842 53.6896 315.004 53.6189 315.181 53.6189C315.391 53.6189 315.553 53.6987 315.667 53.8582C316.441 54.9337 317.273 56.465 318.162 58.4519L319.173 56.0935C319.538 55.2778 319.889 54.576 320.226 53.9881C320.372 53.7329 320.563 53.6053 320.8 53.6053C320.987 53.6053 321.151 53.6713 321.293 53.8035C321.438 53.9357 321.511 54.0929 321.511 54.2752C321.511 54.3754 321.482 54.4894 321.422 54.617ZM332.572 57.7273V60.2566C332.572 60.6805 332.365 60.8924 331.95 60.8924C331.467 60.8924 331.225 60.562 331.225 59.9012C331.225 59.8191 331.23 59.7029 331.239 59.5525C331.248 59.4021 331.253 59.2996 331.253 59.2449L331.246 57.6931L328.231 57.618C327.607 57.618 327.174 57.5974 326.932 57.5564C326.518 57.4881 326.31 57.3263 326.31 57.0711C326.31 56.866 326.436 56.6062 326.686 56.2918L327.274 55.5945L330.637 50.6863C330.943 50.2625 331.33 50.0506 331.799 50.0506C332.314 50.0506 332.572 50.2739 332.572 50.7205V56.4012C332.649 56.3966 332.743 56.3943 332.852 56.3943C333.691 56.3943 334.11 56.6199 334.11 57.0711C334.11 57.3992 333.937 57.6066 333.59 57.6931C333.436 57.7342 333.096 57.7456 332.572 57.7273ZM331.246 51.9441C330.029 53.8855 329.079 55.3393 328.395 56.3055L331.246 56.3738V51.9441ZM345.622 54.617L343.256 59.7303C342.673 60.9744 342.227 62.0157 341.917 62.8543L341.465 64.1805C341.347 64.5086 341.142 64.6726 340.85 64.6726C340.659 64.6726 340.492 64.6088 340.351 64.4812C340.214 64.3582 340.146 64.2032 340.146 64.0164C340.146 63.5607 340.638 62.2413 341.623 60.0584L339.175 55.3484L338.868 54.8494C338.745 54.6398 338.683 54.4643 338.683 54.323C338.683 54.1362 338.754 53.9721 338.895 53.8308C339.041 53.6896 339.203 53.6189 339.38 53.6189C339.59 53.6189 339.752 53.6987 339.866 53.8582C340.641 54.9337 341.472 56.465 342.361 58.4519L343.373 56.0935C343.737 55.2778 344.088 54.576 344.425 53.9881C344.571 53.7329 344.763 53.6053 345 53.6053C345.186 53.6053 345.351 53.6713 345.492 53.8035C345.638 53.9357 345.711 54.0929 345.711 54.2752C345.711 54.3754 345.681 54.4894 345.622 54.617ZM350.14 61.0291C349.11 61.0291 348.276 60.7716 347.638 60.2566C346.941 59.687 346.592 58.8894 346.592 57.864C346.592 56.6791 346.88 55.6857 347.454 54.8836C348.078 54.0086 348.912 53.5711 349.956 53.5711C350.712 53.5711 351.33 53.6987 351.808 53.9539C352.396 54.2683 352.69 54.7514 352.69 55.4031C352.69 55.8588 352.433 56.2735 351.918 56.6472C351.69 56.8113 351.207 57.0665 350.468 57.4129L347.857 58.6502C348.112 59.0284 348.429 59.3133 348.807 59.5047C349.19 59.6961 349.634 59.7918 350.14 59.7918C350.455 59.7918 350.824 59.7325 351.248 59.614C351.785 59.4637 352.132 59.2677 352.287 59.0262C352.442 58.7801 352.608 58.657 352.786 58.657C352.945 58.657 353.087 58.7185 353.21 58.8416C353.337 58.9601 353.401 59.0991 353.401 59.2586C353.401 59.7644 352.993 60.1997 352.177 60.5642C351.48 60.8741 350.801 61.0291 350.14 61.0291ZM349.956 54.8015C349.4 54.8015 348.937 55.018 348.568 55.451C348.199 55.8793 347.923 56.5265 347.741 57.3924L349.839 56.3943C350.664 55.9933 351.252 55.6446 351.603 55.3484C351.211 54.9838 350.662 54.8015 349.956 54.8015ZM359.957 61.1658C359.87 61.1658 359.713 61.0655 359.485 60.865C359.28 60.6782 359.127 60.5118 359.027 60.366C358.589 60.603 358.204 60.7807 357.872 60.8992C357.539 61.0222 357.261 61.0838 357.038 61.0838C355.971 61.0838 355.194 60.783 354.707 60.1814C354.246 59.6163 354.016 58.7504 354.016 57.5838C354.016 56.4809 354.394 55.5375 355.151 54.7537C355.912 53.9698 356.819 53.5779 357.872 53.5779C358.268 53.5779 358.713 53.6805 359.205 53.8855C359.825 54.1407 360.134 54.4484 360.134 54.8084C360.134 54.9314 360.089 55.0408 359.998 55.1365C359.952 55.3097 359.916 55.5945 359.888 55.991C359.866 56.3875 359.852 56.8956 359.847 57.5154C359.843 58.0805 359.881 58.5271 359.964 58.8553C360.009 59.0558 360.153 59.4568 360.394 60.0584C360.426 60.1404 360.478 60.2612 360.551 60.4207L360.592 60.5369C360.592 60.7192 360.529 60.8696 360.401 60.9881C360.273 61.1066 360.125 61.1658 359.957 61.1658ZM358.535 56.4148C358.535 56.2189 358.546 56.0069 358.569 55.7791C358.596 55.5467 358.635 55.3006 358.685 55.0408C358.517 54.9542 358.371 54.8904 358.248 54.8494C358.129 54.8084 358.033 54.7879 357.961 54.7879C357.254 54.7879 356.644 55.0773 356.129 55.656C355.618 56.2303 355.363 56.8933 355.363 57.6453C355.363 58.3927 355.495 58.9532 355.759 59.3269C356.024 59.7006 356.42 59.8875 356.949 59.8875C357.386 59.8875 357.758 59.8077 358.063 59.6482C358.227 59.5616 358.457 59.3885 358.754 59.1287C358.608 57.921 358.535 57.0164 358.535 56.4148ZM367.1 55.6629C367.068 56.2325 366.84 56.5174 366.417 56.5174C366.025 56.5174 365.829 56.2918 365.829 55.8406C365.829 55.754 365.822 55.5945 365.808 55.3621L365.788 54.7879C365.068 54.8745 364.491 55.0773 364.058 55.3963C363.653 55.6925 363.315 56.1391 363.047 56.7361L363.06 60.4822C363.06 60.9425 362.835 61.1726 362.383 61.1726C361.982 61.1726 361.782 60.9425 361.782 60.4822V55.6834C361.782 55.533 361.786 55.3074 361.796 55.0066C361.809 54.7058 361.816 54.4803 361.816 54.3299C361.816 53.8696 362.017 53.6394 362.418 53.6394C362.864 53.6394 363.09 54.0177 363.094 54.7742C363.969 53.9311 364.94 53.5096 366.006 53.5096C366.376 53.5096 366.651 53.6485 366.834 53.9265C367.016 54.2045 367.107 54.6238 367.107 55.1844C367.107 55.4213 367.105 55.5808 367.1 55.6629ZM375.597 60.9539C375.142 60.9539 374.64 60.881 374.093 60.7351L374.08 64.0027C374.08 64.2032 374.016 64.3673 373.888 64.4949C373.765 64.6225 373.606 64.6863 373.41 64.6863C373.214 64.6863 373.052 64.6225 372.924 64.4949C372.801 64.3673 372.74 64.2032 372.74 64.0027L372.76 61.2683V58.5408C372.747 57.5428 372.713 56.6336 372.658 55.8133L372.555 54.4256C372.555 54.102 372.615 53.8286 372.733 53.6053C372.87 53.3364 373.068 53.2019 373.328 53.2019C373.505 53.2019 373.654 53.2657 373.772 53.3933C373.895 53.5164 373.957 53.6691 373.957 53.8513C373.957 53.8924 373.95 53.9676 373.936 54.0769C373.913 54.2182 373.897 54.3481 373.888 54.4666C374.28 54.1977 374.658 53.9972 375.023 53.865C375.388 53.7283 375.736 53.6599 376.069 53.6599C377.003 53.6599 377.687 54.0747 378.12 54.9041C378.462 55.5603 378.632 56.4285 378.632 57.5086C378.632 58.493 378.368 59.3041 377.839 59.9422C377.279 60.6166 376.532 60.9539 375.597 60.9539ZM376.069 55.0271C375.65 55.0271 375.271 55.1206 374.934 55.3074C374.693 55.4396 374.387 55.6811 374.018 56.032C374.077 57.0665 374.107 58.1534 374.107 59.2928C374.604 59.4842 375.101 59.5799 375.597 59.5799C376.167 59.5799 376.602 59.368 376.903 58.9441C377.163 58.575 377.293 58.0965 377.293 57.5086C377.293 56.6791 377.19 56.0594 376.985 55.6492C376.784 55.2345 376.479 55.0271 376.069 55.0271ZM381.921 55.3416L381.818 58.739C381.818 59.0991 381.8 59.6277 381.763 60.325C381.718 60.7807 381.494 61.0086 381.093 61.0086C380.647 61.0086 380.423 60.7762 380.423 60.3113C380.423 59.7599 380.449 58.9327 380.499 57.8299C380.549 56.7224 380.574 55.893 380.574 55.3416C380.574 54.6215 380.585 53.7989 380.608 52.8738C380.631 51.9441 380.642 51.1193 380.642 50.3992C380.642 49.9435 380.866 49.7156 381.312 49.7156C381.763 49.7156 381.989 49.9435 381.989 50.3992C381.989 51.1193 381.977 51.9441 381.955 52.8738C381.932 53.7989 381.921 54.6215 381.921 55.3416ZM389.365 61.1658C389.278 61.1658 389.121 61.0655 388.893 60.865C388.688 60.6782 388.535 60.5118 388.435 60.366C387.998 60.603 387.613 60.7807 387.28 60.8992C386.947 61.0222 386.669 61.0838 386.446 61.0838C385.38 61.0838 384.602 60.783 384.115 60.1814C383.655 59.6163 383.424 58.7504 383.424 57.5838C383.424 56.4809 383.803 55.5375 384.559 54.7537C385.32 53.9698 386.227 53.5779 387.28 53.5779C387.676 53.5779 388.121 53.6805 388.613 53.8855C389.233 54.1407 389.543 54.4484 389.543 54.8084C389.543 54.9314 389.497 55.0408 389.406 55.1365C389.36 55.3097 389.324 55.5945 389.297 55.991C389.274 56.3875 389.26 56.8956 389.255 57.5154C389.251 58.0805 389.29 58.5271 389.372 58.8553C389.417 59.0558 389.561 59.4568 389.802 60.0584C389.834 60.1404 389.887 60.2612 389.96 60.4207L390.001 60.5369C390.001 60.7192 389.937 60.8696 389.809 60.9881C389.682 61.1066 389.533 61.1658 389.365 61.1658ZM387.943 56.4148C387.943 56.2189 387.954 56.0069 387.977 55.7791C388.005 55.5467 388.043 55.3006 388.093 55.0408C387.925 54.9542 387.779 54.8904 387.656 54.8494C387.537 54.8084 387.442 54.7879 387.369 54.7879C386.662 54.7879 386.052 55.0773 385.537 55.656C385.026 56.2303 384.771 56.8933 384.771 57.6453C384.771 58.3927 384.903 58.9532 385.168 59.3269C385.432 59.7006 385.828 59.8875 386.357 59.8875C386.795 59.8875 387.166 59.8077 387.471 59.6482C387.635 59.5616 387.866 59.3885 388.162 59.1287C388.016 57.921 387.943 57.0164 387.943 56.4148ZM396.433 61.2C396.041 61.2 395.82 60.9858 395.77 60.5574L395.579 59.0603C395.515 58.5271 395.483 58.0281 395.483 57.5633C395.483 57.4357 395.49 57.2192 395.504 56.9138C395.522 56.6085 395.531 56.392 395.531 56.2644C395.531 55.2801 395.349 54.7879 394.984 54.7879C394.474 54.7879 393.986 55.0909 393.521 55.6971C393.102 56.2485 392.774 56.9457 392.537 57.7888C392.528 57.9666 392.507 58.1899 392.475 58.4588C392.448 58.6866 392.434 58.9077 392.434 59.1219C392.434 59.2586 392.448 59.4637 392.475 59.7371C392.503 60.0105 392.516 60.2156 392.516 60.3523C392.516 60.5574 392.452 60.7237 392.325 60.8513C392.202 60.979 392.042 61.0428 391.846 61.0428C391.646 61.0428 391.484 60.979 391.361 60.8513C391.238 60.7237 391.176 60.5574 391.176 60.3523C391.176 60.2156 391.16 60.0105 391.129 59.7371C391.101 59.4637 391.088 59.2586 391.088 59.1219C391.088 58.6525 391.119 58.003 391.183 57.1736C391.252 56.3396 391.286 55.6879 391.286 55.2185C391.286 55.0727 391.277 54.8562 391.258 54.5691C391.245 54.282 391.238 54.0655 391.238 53.9197C391.238 53.7237 391.302 53.5642 391.429 53.4412C391.561 53.3136 391.723 53.2498 391.915 53.2498C392.334 53.2498 392.564 53.546 392.605 54.1385L392.626 54.9383C393.391 53.9174 394.177 53.407 394.984 53.407C395.713 53.407 396.221 53.7283 396.508 54.3709C396.704 54.7993 396.811 55.4327 396.83 56.2713V56.9617L396.823 57.5974C396.823 57.9757 396.871 58.4656 396.966 59.0672C397.067 59.6642 397.117 60.1495 397.117 60.5232C397.117 60.7237 397.051 60.8855 396.919 61.0086C396.791 61.1362 396.629 61.2 396.433 61.2Z" fill="#515354"/>
<path d="M226.523 75.1758C226.428 75.1758 226.314 75.1712 226.182 75.1621C226.054 75.153 225.942 75.1484 225.847 75.1484C225.742 75.1484 225.432 75.1826 224.917 75.251L225.047 79.291L225.054 79.5918L225.061 79.9404C225.079 80.9385 224.84 81.4375 224.343 81.4375C224.16 81.4375 224.001 81.3783 223.864 81.2598C223.732 81.1413 223.666 80.9932 223.666 80.8154C223.666 80.6423 223.673 80.3825 223.687 80.0361C223.7 79.6898 223.707 79.43 223.707 79.2568L223.57 75.2646C223.238 75.251 222.732 75.2122 222.053 75.1484C221.647 75.0938 221.444 74.8682 221.444 74.4717C221.444 74.2712 221.506 74.1048 221.629 73.9727C221.752 73.8405 221.909 73.7744 222.101 73.7744L223.536 73.8906C223.536 73.6582 223.525 73.3483 223.502 72.9609C223.484 72.569 223.475 72.2865 223.475 72.1133C223.475 71.9219 223.541 71.7646 223.673 71.6416C223.805 71.514 223.967 71.4502 224.158 71.4502C224.568 71.4502 224.808 71.7852 224.876 72.4551C224.89 72.6237 224.896 72.8265 224.896 73.0635L224.883 73.46L224.876 73.8838C225.441 73.8109 225.765 73.7744 225.847 73.7744C226.321 73.7744 226.631 73.7972 226.776 73.8428C227.054 73.9339 227.193 74.1481 227.193 74.4854C227.193 74.6859 227.13 74.8522 227.002 74.9844C226.879 75.112 226.719 75.1758 226.523 75.1758ZM231.117 81.4033C230.352 81.4033 229.693 81.1208 229.142 80.5557C228.526 79.9268 228.203 79.0814 228.171 78.0195C228.144 76.9896 228.403 76.0827 228.95 75.2988C229.588 74.3737 230.477 73.9111 231.616 73.9111C232.528 73.9111 233.218 74.3281 233.688 75.1621C234.061 75.8366 234.241 76.6478 234.228 77.5957C234.214 78.6074 233.95 79.471 233.435 80.1865C232.851 80.9977 232.079 81.4033 231.117 81.4033ZM231.527 75.2988C230.857 75.2943 230.336 75.6133 229.962 76.2559C229.666 76.7708 229.518 77.3587 229.518 78.0195C229.518 78.6803 229.698 79.1953 230.058 79.5645C230.358 79.8698 230.712 80.0225 231.117 80.0225C231.591 80.0225 231.999 79.8493 232.341 79.5029C232.728 79.1201 232.933 78.6029 232.956 77.9512C233.02 76.1875 232.544 75.3034 231.527 75.2988ZM244.105 74.8818C243.75 76.3675 243.285 78.0469 242.711 79.9199C242.583 80.3346 242.371 80.7607 242.075 81.1982C241.916 81.4398 241.699 81.5583 241.426 81.5537C240.929 81.5446 240.542 80.9271 240.264 79.7012C240.173 79.3092 240.079 78.776 239.983 78.1016L239.758 76.5771L239.197 77.8828L238.158 80.7061C238.099 80.8792 238.012 81.0114 237.898 81.1025C237.762 81.3669 237.543 81.5036 237.242 81.5127C236.896 81.5264 236.561 80.8473 236.237 79.4756C236.073 78.7692 235.909 77.8122 235.745 76.6045L235.581 75.5791C235.522 75.1689 235.492 74.8249 235.492 74.5469C235.492 74.3555 235.558 74.1982 235.69 74.0752C235.827 73.9476 235.991 73.8838 236.183 73.8838C236.529 73.8838 236.743 74.0729 236.825 74.4512C236.884 74.7201 236.932 75.0527 236.969 75.4492L237.071 76.4541L237.475 79.5234C237.98 78.1198 238.505 76.502 239.047 74.6699C239.197 74.1641 239.459 73.9111 239.833 73.9111C240.193 73.9111 240.437 74.1937 240.564 74.7588C240.683 75.292 240.831 76.1123 241.009 77.2197C241.191 78.3682 241.353 79.2637 241.494 79.9062L241.993 78.0469L242.875 74.3213C242.943 74.0433 243.139 73.9043 243.463 73.9043C243.654 73.9043 243.821 73.9704 243.962 74.1025C244.103 74.2301 244.174 74.3851 244.174 74.5674C244.174 74.5902 244.151 74.695 244.105 74.8818ZM250.846 81.4512C250.759 81.4512 250.602 81.3509 250.374 81.1504C250.169 80.9635 250.016 80.7972 249.916 80.6514C249.479 80.8883 249.093 81.0661 248.761 81.1846C248.428 81.3076 248.15 81.3691 247.927 81.3691C246.86 81.3691 246.083 81.0684 245.596 80.4668C245.135 79.9017 244.905 79.0358 244.905 77.8691C244.905 76.7663 245.284 75.8229 246.04 75.0391C246.801 74.2552 247.708 73.8633 248.761 73.8633C249.157 73.8633 249.602 73.9658 250.094 74.1709C250.714 74.4261 251.023 74.7337 251.023 75.0938C251.023 75.2168 250.978 75.3262 250.887 75.4219C250.841 75.5951 250.805 75.8799 250.777 76.2764C250.755 76.6729 250.741 77.181 250.736 77.8008C250.732 78.3659 250.771 78.8125 250.853 79.1406C250.898 79.3411 251.042 79.7422 251.283 80.3438C251.315 80.4258 251.368 80.5465 251.44 80.7061L251.481 80.8223C251.481 81.0046 251.418 81.1549 251.29 81.2734C251.162 81.3919 251.014 81.4512 250.846 81.4512ZM249.424 76.7002C249.424 76.5042 249.435 76.2923 249.458 76.0645C249.485 75.832 249.524 75.5859 249.574 75.3262C249.406 75.2396 249.26 75.1758 249.137 75.1348C249.018 75.0938 248.923 75.0732 248.85 75.0732C248.143 75.0732 247.533 75.3626 247.018 75.9414C246.507 76.5156 246.252 77.1787 246.252 77.9307C246.252 78.6781 246.384 79.2386 246.648 79.6123C246.913 79.986 247.309 80.1729 247.838 80.1729C248.275 80.1729 248.647 80.0931 248.952 79.9336C249.116 79.847 249.346 79.6738 249.643 79.4141C249.497 78.2064 249.424 77.3018 249.424 76.7002ZM257.989 75.9482C257.957 76.5179 257.729 76.8027 257.306 76.8027C256.914 76.8027 256.718 76.5771 256.718 76.126C256.718 76.0394 256.711 75.8799 256.697 75.6475L256.677 75.0732C255.957 75.1598 255.38 75.3626 254.947 75.6816C254.542 75.9779 254.204 76.4245 253.936 77.0215L253.949 80.7676C253.949 81.2279 253.724 81.458 253.272 81.458C252.871 81.458 252.671 81.2279 252.671 80.7676V75.9688C252.671 75.8184 252.675 75.5928 252.685 75.292C252.698 74.9912 252.705 74.7656 252.705 74.6152C252.705 74.1549 252.906 73.9248 253.307 73.9248C253.753 73.9248 253.979 74.3031 253.983 75.0596C254.858 74.2165 255.829 73.7949 256.896 73.7949C257.265 73.7949 257.54 73.9339 257.723 74.2119C257.905 74.4899 257.996 74.9092 257.996 75.4697C257.996 75.7067 257.994 75.8662 257.989 75.9482ZM265.693 74.9639C265.639 75.6338 265.611 76.3037 265.611 76.9736C265.611 78.4912 265.682 79.6374 265.823 80.4121C265.832 80.4759 265.837 80.5283 265.837 80.5693C265.837 80.7516 265.773 80.902 265.646 81.0205C265.518 81.139 265.37 81.1982 265.201 81.1982C264.919 81.1982 264.711 80.9932 264.579 80.583C264.251 80.8245 263.909 81.0068 263.554 81.1299C263.203 81.2529 262.836 81.3145 262.453 81.3145C261.51 81.3145 260.728 81 260.108 80.3711C259.47 79.7285 259.151 78.9036 259.151 77.8965C259.151 76.6797 259.473 75.7044 260.115 74.9707C260.762 74.237 261.601 73.8701 262.631 73.8701C263.16 73.8701 263.567 73.9521 263.854 74.1162L264.497 74.5879C264.561 72.6693 264.636 71.3773 264.723 70.7119C264.782 70.3063 264.989 70.1035 265.345 70.1035C265.759 70.1035 265.967 70.3245 265.967 70.7666C265.967 71.4001 265.876 72.7992 265.693 74.9639ZM262.658 75.1416C261.893 75.1416 261.318 75.3695 260.936 75.8252C260.553 76.2764 260.361 76.9577 260.361 77.8691C260.361 78.457 260.569 78.9629 260.983 79.3867C261.403 79.8105 261.893 80.0225 262.453 80.0225C262.836 80.0225 263.16 79.9518 263.424 79.8105C263.579 79.7285 263.832 79.5394 264.183 79.2432C264.251 79.1839 264.317 79.1133 264.381 79.0312L264.36 77.8486L264.367 77.0557L264.381 76.249C264.208 75.8799 263.978 75.6042 263.69 75.4219C263.403 75.235 263.059 75.1416 262.658 75.1416ZM272.242 75.7363C271.992 75.7363 271.816 75.652 271.716 75.4834C271.647 75.3649 271.588 75.1188 271.538 74.7451C271.196 74.8317 270.67 74.9912 269.959 75.2236C269.225 75.5153 268.856 75.8753 268.852 76.3037C268.988 76.3538 269.123 76.3903 269.255 76.4131C270.303 76.5999 271.082 76.8574 271.593 77.1855C272.336 77.6641 272.707 78.3568 272.707 79.2637C272.707 80.0065 272.386 80.5671 271.743 80.9453C271.21 81.2552 270.535 81.4102 269.72 81.4102C269.123 81.4102 268.553 81.3099 268.011 81.1094C267.309 80.8542 266.958 80.4987 266.958 80.043C266.958 79.8607 267.029 79.7012 267.17 79.5645C267.316 79.4277 267.48 79.3594 267.662 79.3594C267.803 79.3594 267.986 79.4688 268.209 79.6875C268.318 79.7923 268.564 79.8789 268.947 79.9473C269.253 80.002 269.51 80.0293 269.72 80.0293C270.103 80.0293 270.44 79.9837 270.731 79.8926C271.155 79.7604 271.367 79.5508 271.367 79.2637C271.367 78.6439 270.934 78.2246 270.068 78.0059L269.357 77.8486C268.751 77.7165 268.321 77.5615 268.065 77.3838C267.696 77.1286 267.512 76.7435 267.512 76.2285C267.512 75.276 267.961 74.597 268.858 74.1914C269.132 74.0684 269.569 73.9225 270.171 73.7539C270.772 73.5807 271.203 73.4349 271.463 73.3164C271.65 73.2344 271.853 73.1934 272.071 73.1934C272.267 73.1934 272.427 73.2572 272.55 73.3848C272.677 73.5124 272.741 73.6787 272.741 73.8838C272.741 74.016 272.769 74.2096 272.823 74.4648C272.882 74.7201 272.912 74.9137 272.912 75.0459C272.912 75.251 272.848 75.4173 272.721 75.5449C272.598 75.6725 272.438 75.7363 272.242 75.7363ZM284.26 78.0537L284.103 80.3506C284.075 81.262 283.982 82.0072 283.822 82.5859C283.617 83.3242 283.289 83.8688 282.838 84.2197C282.291 84.6436 281.5 84.8555 280.466 84.8555C279.86 84.8555 279.352 84.8145 278.941 84.7324C278.367 84.6185 278.08 84.3815 278.08 84.0215C278.08 83.6159 278.278 83.4131 278.675 83.4131C278.839 83.4131 279.112 83.4518 279.495 83.5293C279.878 83.6113 280.302 83.6478 280.767 83.6387C281.642 83.625 282.245 83.2012 282.578 82.3672C282.797 81.8112 282.913 80.9567 282.927 79.8037C282.681 80.2594 282.387 80.6012 282.045 80.8291C281.708 81.057 281.32 81.1709 280.883 81.1709C280.058 81.1709 279.386 80.8906 278.866 80.3301C278.351 79.765 278.094 79.0335 278.094 78.1357C278.094 76.9053 278.447 75.9141 279.153 75.1621C279.882 74.3874 280.876 74 282.134 74C282.558 74 282.913 74.0547 283.2 74.1641C283.487 74.2734 283.706 74.4375 283.856 74.6562C284.344 74.6699 284.588 74.9411 284.588 75.4697C284.588 75.7933 284.54 76.2262 284.444 76.7686C284.34 77.3975 284.278 77.8258 284.26 78.0537ZM282.065 75.0938C281.2 75.0938 280.53 75.3923 280.056 75.9893C279.632 76.527 279.42 77.2106 279.42 78.04C279.42 78.7008 279.545 79.1976 279.796 79.5303C280.047 79.863 280.423 80.0293 280.924 80.0293C281.384 80.0293 281.831 79.7695 282.264 79.25C282.656 78.7715 282.879 78.2975 282.934 77.8281C283.029 77.3359 283.132 76.5635 283.241 75.5107C283.059 75.3695 282.87 75.2646 282.674 75.1963C282.478 75.1279 282.275 75.0938 282.065 75.0938ZM291.39 75.9482C291.358 76.5179 291.13 76.8027 290.706 76.8027C290.314 76.8027 290.118 76.5771 290.118 76.126C290.118 76.0394 290.111 75.8799 290.098 75.6475L290.077 75.0732C289.357 75.1598 288.781 75.3626 288.348 75.6816C287.942 75.9779 287.605 76.4245 287.336 77.0215L287.35 80.7676C287.35 81.2279 287.124 81.458 286.673 81.458C286.272 81.458 286.071 81.2279 286.071 80.7676V75.9688C286.071 75.8184 286.076 75.5928 286.085 75.292C286.099 74.9912 286.105 74.7656 286.105 74.6152C286.105 74.1549 286.306 73.9248 286.707 73.9248C287.154 73.9248 287.379 74.3031 287.384 75.0596C288.259 74.2165 289.229 73.7949 290.296 73.7949C290.665 73.7949 290.941 73.9339 291.123 74.2119C291.305 74.4899 291.396 74.9092 291.396 75.4697C291.396 75.7067 291.394 75.8662 291.39 75.9482ZM298.137 81.4512C298.05 81.4512 297.893 81.3509 297.665 81.1504C297.46 80.9635 297.307 80.7972 297.207 80.6514C296.77 80.8883 296.384 81.0661 296.052 81.1846C295.719 81.3076 295.441 81.3691 295.218 81.3691C294.151 81.3691 293.374 81.0684 292.887 80.4668C292.426 79.9017 292.196 79.0358 292.196 77.8691C292.196 76.7663 292.575 75.8229 293.331 75.0391C294.092 74.2552 294.999 73.8633 296.052 73.8633C296.448 73.8633 296.893 73.9658 297.385 74.1709C298.005 74.4261 298.314 74.7337 298.314 75.0938C298.314 75.2168 298.269 75.3262 298.178 75.4219C298.132 75.5951 298.096 75.8799 298.068 76.2764C298.046 76.6729 298.032 77.181 298.027 77.8008C298.023 78.3659 298.062 78.8125 298.144 79.1406C298.189 79.3411 298.333 79.7422 298.574 80.3438C298.606 80.4258 298.659 80.5465 298.731 80.7061L298.772 80.8223C298.772 81.0046 298.709 81.1549 298.581 81.2734C298.453 81.3919 298.305 81.4512 298.137 81.4512ZM296.715 76.7002C296.715 76.5042 296.726 76.2923 296.749 76.0645C296.776 75.832 296.815 75.5859 296.865 75.3262C296.697 75.2396 296.551 75.1758 296.428 75.1348C296.309 75.0938 296.214 75.0732 296.141 75.0732C295.434 75.0732 294.824 75.3626 294.309 75.9414C293.798 76.5156 293.543 77.1787 293.543 77.9307C293.543 78.6781 293.675 79.2386 293.939 79.6123C294.204 79.986 294.6 80.1729 295.129 80.1729C295.566 80.1729 295.938 80.0931 296.243 79.9336C296.407 79.847 296.637 79.6738 296.934 79.4141C296.788 78.2064 296.715 77.3018 296.715 76.7002ZM306.258 74.9639C306.203 75.6338 306.176 76.3037 306.176 76.9736C306.176 78.4912 306.246 79.6374 306.388 80.4121C306.397 80.4759 306.401 80.5283 306.401 80.5693C306.401 80.7516 306.338 80.902 306.21 81.0205C306.082 81.139 305.934 81.1982 305.766 81.1982C305.483 81.1982 305.276 80.9932 305.144 80.583C304.815 80.8245 304.474 81.0068 304.118 81.1299C303.767 81.2529 303.4 81.3145 303.018 81.3145C302.074 81.3145 301.293 81 300.673 80.3711C300.035 79.7285 299.716 78.9036 299.716 77.8965C299.716 76.6797 300.037 75.7044 300.68 74.9707C301.327 74.237 302.165 73.8701 303.195 73.8701C303.724 73.8701 304.132 73.9521 304.419 74.1162L305.062 74.5879C305.125 72.6693 305.201 71.3773 305.287 70.7119C305.346 70.3063 305.554 70.1035 305.909 70.1035C306.324 70.1035 306.531 70.3245 306.531 70.7666C306.531 71.4001 306.44 72.7992 306.258 74.9639ZM303.223 75.1416C302.457 75.1416 301.883 75.3695 301.5 75.8252C301.117 76.2764 300.926 76.9577 300.926 77.8691C300.926 78.457 301.133 78.9629 301.548 79.3867C301.967 79.8105 302.457 80.0225 303.018 80.0225C303.4 80.0225 303.724 79.9518 303.988 79.8105C304.143 79.7285 304.396 79.5394 304.747 79.2432C304.815 79.1839 304.882 79.1133 304.945 79.0312L304.925 77.8486L304.932 77.0557L304.945 76.249C304.772 75.8799 304.542 75.6042 304.255 75.4219C303.968 75.235 303.624 75.1416 303.223 75.1416ZM313.771 77.0078C313.771 77.3359 313.773 77.8281 313.777 78.4844C313.782 79.1406 313.784 79.6328 313.784 79.9609C313.784 80.0612 313.791 80.2139 313.805 80.4189C313.823 80.624 313.832 80.7767 313.832 80.877C313.832 81.0729 313.766 81.2324 313.634 81.3555C313.502 81.4831 313.34 81.5469 313.148 81.5469C312.798 81.5469 312.574 81.3304 312.479 80.8975C311.909 81.1937 311.253 81.3418 310.51 81.3418C309.913 81.3418 309.418 81.2096 309.026 80.9453C308.593 80.6536 308.336 80.2275 308.254 79.667C308.076 78.4593 307.987 77.3838 307.987 76.4404C307.987 75.8161 308.056 75.1051 308.192 74.3076C308.256 73.9111 308.473 73.7129 308.842 73.7129C309.038 73.7129 309.202 73.7767 309.334 73.9043C309.466 74.0273 309.532 74.1868 309.532 74.3828C309.532 74.5924 309.498 74.9274 309.43 75.3877C309.366 75.848 309.334 76.1989 309.334 76.4404C309.334 77.2015 309.359 77.8532 309.409 78.3955C309.459 78.9378 309.535 79.373 309.635 79.7012C309.785 79.7832 309.933 79.847 310.079 79.8926C310.225 79.9336 310.368 79.9541 310.51 79.9541C311.12 79.9541 311.765 79.8561 312.444 79.6602L312.438 78.2725L312.424 76.9463C312.424 75.9619 312.467 75.1074 312.554 74.3828C312.604 73.9635 312.825 73.7539 313.217 73.7539C313.413 73.7539 313.577 73.8177 313.709 73.9453C313.841 74.0729 313.903 74.2324 313.894 74.4238L313.771 77.0078ZM320.818 81.4512C320.732 81.4512 320.575 81.3509 320.347 81.1504C320.142 80.9635 319.989 80.7972 319.889 80.6514C319.451 80.8883 319.066 81.0661 318.733 81.1846C318.401 81.3076 318.123 81.3691 317.899 81.3691C316.833 81.3691 316.056 81.0684 315.568 80.4668C315.108 79.9017 314.878 79.0358 314.878 77.8691C314.878 76.7663 315.256 75.8229 316.013 75.0391C316.774 74.2552 317.681 73.8633 318.733 73.8633C319.13 73.8633 319.574 73.9658 320.066 74.1709C320.686 74.4261 320.996 74.7337 320.996 75.0938C320.996 75.2168 320.951 75.3262 320.859 75.4219C320.814 75.5951 320.777 75.8799 320.75 76.2764C320.727 76.6729 320.714 77.181 320.709 77.8008C320.704 78.3659 320.743 78.8125 320.825 79.1406C320.871 79.3411 321.014 79.7422 321.256 80.3438C321.288 80.4258 321.34 80.5465 321.413 80.7061L321.454 80.8223C321.454 81.0046 321.39 81.1549 321.263 81.2734C321.135 81.3919 320.987 81.4512 320.818 81.4512ZM319.396 76.7002C319.396 76.5042 319.408 76.2923 319.431 76.0645C319.458 75.832 319.497 75.5859 319.547 75.3262C319.378 75.2396 319.232 75.1758 319.109 75.1348C318.991 75.0938 318.895 75.0732 318.822 75.0732C318.116 75.0732 317.505 75.3626 316.99 75.9414C316.48 76.5156 316.225 77.1787 316.225 77.9307C316.225 78.6781 316.357 79.2386 316.621 79.6123C316.885 79.986 317.282 80.1729 317.811 80.1729C318.248 80.1729 318.619 80.0931 318.925 79.9336C319.089 79.847 319.319 79.6738 319.615 79.4141C319.469 78.2064 319.396 77.3018 319.396 76.7002ZM327.217 75.1758C327.121 75.1758 327.007 75.1712 326.875 75.1621C326.747 75.153 326.636 75.1484 326.54 75.1484C326.435 75.1484 326.125 75.1826 325.61 75.251L325.74 79.291L325.747 79.5918L325.754 79.9404C325.772 80.9385 325.533 81.4375 325.036 81.4375C324.854 81.4375 324.694 81.3783 324.558 81.2598C324.425 81.1413 324.359 80.9932 324.359 80.8154C324.359 80.6423 324.366 80.3825 324.38 80.0361C324.394 79.6898 324.4 79.43 324.4 79.2568L324.264 75.2646C323.931 75.251 323.425 75.2122 322.746 75.1484C322.34 75.0938 322.138 74.8682 322.138 74.4717C322.138 74.2712 322.199 74.1048 322.322 73.9727C322.445 73.8405 322.603 73.7744 322.794 73.7744L324.229 73.8906C324.229 73.6582 324.218 73.3483 324.195 72.9609C324.177 72.569 324.168 72.2865 324.168 72.1133C324.168 71.9219 324.234 71.7646 324.366 71.6416C324.498 71.514 324.66 71.4502 324.852 71.4502C325.262 71.4502 325.501 71.7852 325.569 72.4551C325.583 72.6237 325.59 72.8265 325.59 73.0635L325.576 73.46L325.569 73.8838C326.134 73.8109 326.458 73.7744 326.54 73.7744C327.014 73.7744 327.324 73.7972 327.47 73.8428C327.748 73.9339 327.887 74.1481 327.887 74.4854C327.887 74.6859 327.823 74.8522 327.695 74.9844C327.572 75.112 327.413 75.1758 327.217 75.1758ZM330.553 72.3457C330.334 72.3457 330.145 72.2682 329.985 72.1133C329.826 71.9583 329.746 71.7715 329.746 71.5527C329.746 71.334 329.826 71.1471 329.985 70.9922C330.145 70.8372 330.334 70.7598 330.553 70.7598C330.771 70.7598 330.958 70.8372 331.113 70.9922C331.273 71.1471 331.353 71.334 331.353 71.5527C331.353 71.7715 331.273 71.9583 331.113 72.1133C330.958 72.2682 330.771 72.3457 330.553 72.3457ZM330.86 77.8965C330.86 78.1699 330.867 78.5801 330.881 79.127C330.899 79.6693 330.908 80.0771 330.908 80.3506C330.908 80.5511 330.847 80.7152 330.724 80.8428C330.601 80.9704 330.439 81.0342 330.238 81.0342C330.042 81.0342 329.881 80.9704 329.753 80.8428C329.63 80.7152 329.568 80.5511 329.568 80.3506C329.568 80.0771 329.559 79.6693 329.541 79.127C329.527 78.5801 329.521 78.1699 329.521 77.8965C329.521 77.4681 329.543 76.9349 329.589 76.2969C329.634 75.6543 329.657 75.1188 329.657 74.6904C329.657 74.4854 329.719 74.319 329.842 74.1914C329.969 74.0638 330.131 74 330.327 74C330.523 74 330.683 74.0638 330.806 74.1914C330.933 74.319 330.997 74.4854 330.997 74.6904C330.997 75.1188 330.974 75.6543 330.929 76.2969C330.883 76.9349 330.86 77.4681 330.86 77.8965ZM335.734 81.4033C334.969 81.4033 334.31 81.1208 333.759 80.5557C333.144 79.9268 332.82 79.0814 332.788 78.0195C332.761 76.9896 333.021 76.0827 333.567 75.2988C334.205 74.3737 335.094 73.9111 336.233 73.9111C337.145 73.9111 337.835 74.3281 338.305 75.1621C338.678 75.8366 338.858 76.6478 338.845 77.5957C338.831 78.6074 338.567 79.471 338.052 80.1865C337.468 80.9977 336.696 81.4033 335.734 81.4033ZM336.145 75.2988C335.475 75.2943 334.953 75.6133 334.579 76.2559C334.283 76.7708 334.135 77.3587 334.135 78.0195C334.135 78.6803 334.315 79.1953 334.675 79.5645C334.976 79.8698 335.329 80.0225 335.734 80.0225C336.208 80.0225 336.616 79.8493 336.958 79.5029C337.345 79.1201 337.55 78.6029 337.573 77.9512C337.637 76.1875 337.161 75.3034 336.145 75.2988ZM345.783 81.4854C345.391 81.4854 345.17 81.2712 345.12 80.8428L344.929 79.3457C344.865 78.8125 344.833 78.3135 344.833 77.8486C344.833 77.721 344.84 77.5046 344.854 77.1992C344.872 76.8939 344.881 76.6774 344.881 76.5498C344.881 75.5654 344.699 75.0732 344.334 75.0732C343.824 75.0732 343.336 75.3763 342.871 75.9824C342.452 76.5339 342.124 77.2311 341.887 78.0742C341.878 78.252 341.857 78.4753 341.825 78.7441C341.798 78.972 341.784 79.193 341.784 79.4072C341.784 79.5439 341.798 79.749 341.825 80.0225C341.853 80.2959 341.866 80.501 341.866 80.6377C341.866 80.8428 341.802 81.0091 341.675 81.1367C341.552 81.2643 341.392 81.3281 341.196 81.3281C340.996 81.3281 340.834 81.2643 340.711 81.1367C340.588 81.0091 340.526 80.8428 340.526 80.6377C340.526 80.501 340.51 80.2959 340.479 80.0225C340.451 79.749 340.438 79.5439 340.438 79.4072C340.438 78.9378 340.469 78.2884 340.533 77.459C340.602 76.625 340.636 75.9733 340.636 75.5039C340.636 75.3581 340.627 75.1416 340.608 74.8545C340.595 74.5674 340.588 74.3509 340.588 74.2051C340.588 74.0091 340.652 73.8496 340.779 73.7266C340.911 73.599 341.073 73.5352 341.265 73.5352C341.684 73.5352 341.914 73.8314 341.955 74.4238L341.976 75.2236C342.741 74.2028 343.527 73.6924 344.334 73.6924C345.063 73.6924 345.571 74.0137 345.858 74.6562C346.054 75.0846 346.161 75.7181 346.18 76.5566V77.2471L346.173 77.8828C346.173 78.2611 346.221 78.751 346.316 79.3525C346.417 79.9495 346.467 80.4349 346.467 80.8086C346.467 81.0091 346.401 81.1709 346.269 81.2939C346.141 81.4215 345.979 81.4854 345.783 81.4854ZM349.748 79.4551C349.748 79.6602 349.682 79.8288 349.55 79.9609C349.418 80.0931 349.249 80.1592 349.044 80.1592C348.839 80.1592 348.673 80.0931 348.545 79.9609C348.413 79.8288 348.347 79.6602 348.347 79.4551C348.347 79.3685 348.331 79.2432 348.299 79.0791C348.271 78.9105 348.258 78.7852 348.258 78.7031C348.258 78.5117 348.328 78.3522 348.47 78.2246C348.616 78.097 348.786 78.0332 348.982 78.0332C349.493 78.0332 349.748 78.5072 349.748 79.4551ZM349.632 74.4648C349.632 74.6699 349.566 74.8385 349.434 74.9707C349.306 75.1029 349.14 75.1689 348.935 75.1689C348.729 75.1689 348.561 75.1029 348.429 74.9707C348.297 74.8385 348.23 74.6699 348.23 74.4648C348.23 74.4102 348.219 74.3281 348.196 74.2188C348.178 74.1048 348.169 74.0182 348.169 73.959C348.169 73.763 348.237 73.6012 348.374 73.4736C348.511 73.346 348.679 73.2822 348.88 73.2822C349.381 73.2822 349.632 73.6764 349.632 74.4648ZM364.917 81.5674C364.543 81.5674 364.325 81.3691 364.261 80.9727C364.179 80.4714 364.097 79.765 364.015 78.8535L363.782 76.7344C363.737 76.4199 363.659 76.1123 363.55 75.8115C363.395 75.4014 363.226 75.1963 363.044 75.1963C362.875 75.1963 362.561 75.3398 362.101 75.627C361.663 75.8913 361.376 76.1032 361.239 76.2627C361.235 76.6911 361.246 77.1195 361.273 77.5479L361.479 79.373C361.565 80.0931 361.608 80.6878 361.608 81.1572C361.608 81.3577 361.545 81.5218 361.417 81.6494C361.294 81.7816 361.134 81.8477 360.938 81.8477C360.743 81.8477 360.581 81.7816 360.453 81.6494C360.33 81.5218 360.269 81.3577 360.269 81.1572C360.269 80.6058 360.212 79.7923 360.098 78.7168C359.988 77.6367 359.934 76.821 359.934 76.2695C359.934 75.7865 359.865 75.4105 359.729 75.1416C359.41 75.2874 359.086 75.5244 358.758 75.8525L357.951 76.7549C357.878 76.8643 357.762 77.0078 357.603 77.1855C357.603 77.459 357.577 77.8623 357.527 78.3955C357.477 78.9287 357.452 79.3229 357.452 79.5781C357.452 79.7148 357.473 79.9062 357.514 80.1523C357.559 80.3984 357.582 80.5762 357.582 80.6855C357.582 80.8724 357.511 81.0296 357.37 81.1572C357.233 81.2848 357.072 81.3486 356.885 81.3486C356.37 81.3486 356.112 80.763 356.112 79.5918C356.112 79.3184 356.137 78.9105 356.188 78.3682C356.238 77.8258 356.263 77.418 356.263 77.1445C356.263 76.903 356.24 76.5407 356.194 76.0576C356.153 75.5745 356.133 75.21 356.133 74.9639C356.133 73.9294 356.365 73.4121 356.83 73.4121C357.008 73.4121 357.17 73.4896 357.315 73.6445C357.466 73.7995 357.541 73.9681 357.541 74.1504C357.541 74.237 357.53 74.3714 357.507 74.5537C357.484 74.736 357.473 74.875 357.473 74.9707L357.486 75.6885C357.723 75.2008 358.072 74.7611 358.532 74.3691C358.993 73.9727 359.384 73.7744 359.708 73.7744C360.424 73.7744 360.916 74.1299 361.185 74.8408C361.435 74.5081 361.734 74.2598 362.08 74.0957C362.426 73.9271 362.823 73.8428 363.27 73.8428C364.031 73.8428 364.55 74.2529 364.828 75.0732C364.883 75.2373 364.976 75.8776 365.108 76.9941C365.236 77.778 365.4 79.0837 365.601 80.9111C365.614 81.0934 365.553 81.2484 365.416 81.376C365.279 81.5036 365.113 81.5674 364.917 81.5674ZM373.079 74.9023L370.714 80.0156C370.131 81.2598 369.684 82.3011 369.374 83.1396L368.923 84.4658C368.804 84.7939 368.599 84.958 368.308 84.958C368.116 84.958 367.95 84.8942 367.809 84.7666C367.672 84.6436 367.604 84.4886 367.604 84.3018C367.604 83.846 368.096 82.5267 369.08 80.3438L366.633 75.6338L366.325 75.1348C366.202 74.9251 366.141 74.7497 366.141 74.6084C366.141 74.4215 366.211 74.2575 366.353 74.1162C366.498 73.9749 366.66 73.9043 366.838 73.9043C367.048 73.9043 367.209 73.984 367.323 74.1436C368.098 75.2191 368.93 76.7503 369.818 78.7373L370.83 76.3789C371.195 75.5632 371.546 74.8613 371.883 74.2734C372.029 74.0182 372.22 73.8906 372.457 73.8906C372.644 73.8906 372.808 73.9567 372.949 74.0889C373.095 74.221 373.168 74.3783 373.168 74.5605C373.168 74.6608 373.138 74.7747 373.079 74.9023ZM381.679 81.4307C380.744 81.4307 379.965 81.1481 379.341 80.583C378.685 79.9906 378.356 79.209 378.356 78.2383C378.356 77.3132 378.664 76.3584 379.279 75.374C379.963 74.2803 380.733 73.7334 381.59 73.7334C382.036 73.7334 382.535 73.8382 383.087 74.0479C383.784 74.3167 384.133 74.6449 384.133 75.0322C384.133 75.2054 384.076 75.3604 383.962 75.4971C383.848 75.6292 383.707 75.6953 383.538 75.6953C383.406 75.6953 383.29 75.6566 383.189 75.5791C383.094 75.4971 383 75.4173 382.909 75.3398C382.64 75.1257 382.201 75.0186 381.59 75.0186C381.125 75.0186 380.665 75.4333 380.209 76.2627C379.794 77.0238 379.587 77.6823 379.587 78.2383C379.587 78.8398 379.792 79.3138 380.202 79.6602C380.585 79.9837 381.077 80.1455 381.679 80.1455C381.952 80.1455 382.244 80.0726 382.554 79.9268L383.347 79.5029C383.483 79.43 383.581 79.3936 383.641 79.3936C383.809 79.3936 383.955 79.4619 384.078 79.5986C384.201 79.7308 384.263 79.8835 384.263 80.0566C384.263 80.3893 383.912 80.7106 383.21 81.0205C382.595 81.2939 382.084 81.4307 381.679 81.4307ZM388.344 81.4033C387.578 81.4033 386.92 81.1208 386.368 80.5557C385.753 79.9268 385.429 79.0814 385.397 78.0195C385.37 76.9896 385.63 76.0827 386.177 75.2988C386.815 74.3737 387.703 73.9111 388.843 73.9111C389.754 73.9111 390.445 74.3281 390.914 75.1621C391.288 75.8366 391.468 76.6478 391.454 77.5957C391.44 78.6074 391.176 79.471 390.661 80.1865C390.078 80.9977 389.305 81.4033 388.344 81.4033ZM388.754 75.2988C388.084 75.2943 387.562 75.6133 387.188 76.2559C386.892 76.7708 386.744 77.3587 386.744 78.0195C386.744 78.6803 386.924 79.1953 387.284 79.5645C387.585 79.8698 387.938 80.0225 388.344 80.0225C388.818 80.0225 389.226 79.8493 389.567 79.5029C389.955 79.1201 390.16 78.6029 390.183 77.9512C390.246 76.1875 389.77 75.3034 388.754 75.2988ZM398.728 77.0078C398.728 77.3359 398.73 77.8281 398.734 78.4844C398.739 79.1406 398.741 79.6328 398.741 79.9609C398.741 80.0612 398.748 80.2139 398.762 80.4189C398.78 80.624 398.789 80.7767 398.789 80.877C398.789 81.0729 398.723 81.2324 398.591 81.3555C398.459 81.4831 398.297 81.5469 398.105 81.5469C397.755 81.5469 397.531 81.3304 397.436 80.8975C396.866 81.1937 396.21 81.3418 395.467 81.3418C394.87 81.3418 394.375 81.2096 393.983 80.9453C393.55 80.6536 393.293 80.2275 393.211 79.667C393.033 78.4593 392.944 77.3838 392.944 76.4404C392.944 75.8161 393.013 75.1051 393.149 74.3076C393.213 73.9111 393.43 73.7129 393.799 73.7129C393.995 73.7129 394.159 73.7767 394.291 73.9043C394.423 74.0273 394.489 74.1868 394.489 74.3828C394.489 74.5924 394.455 74.9274 394.387 75.3877C394.323 75.848 394.291 76.1989 394.291 76.4404C394.291 77.2015 394.316 77.8532 394.366 78.3955C394.416 78.9378 394.492 79.373 394.592 79.7012C394.742 79.7832 394.89 79.847 395.036 79.8926C395.182 79.9336 395.326 79.9541 395.467 79.9541C396.077 79.9541 396.722 79.8561 397.401 79.6602L397.395 78.2725L397.381 76.9463C397.381 75.9619 397.424 75.1074 397.511 74.3828C397.561 73.9635 397.782 73.7539 398.174 73.7539C398.37 73.7539 398.534 73.8177 398.666 73.9453C398.798 74.0729 398.86 74.2324 398.851 74.4238L398.728 77.0078ZM405.755 75.9482C405.723 76.5179 405.495 76.8027 405.071 76.8027C404.679 76.8027 404.483 76.5771 404.483 76.126C404.483 76.0394 404.477 75.8799 404.463 75.6475L404.442 75.0732C403.722 75.1598 403.146 75.3626 402.713 75.6816C402.307 75.9779 401.97 76.4245 401.701 77.0215L401.715 80.7676C401.715 81.2279 401.489 81.458 401.038 81.458C400.637 81.458 400.437 81.2279 400.437 80.7676V75.9688C400.437 75.8184 400.441 75.5928 400.45 75.292C400.464 74.9912 400.471 74.7656 400.471 74.6152C400.471 74.1549 400.671 73.9248 401.072 73.9248C401.519 73.9248 401.744 74.3031 401.749 75.0596C402.624 74.2165 403.595 73.7949 404.661 73.7949C405.03 73.7949 405.306 73.9339 405.488 74.2119C405.671 74.4899 405.762 74.9092 405.762 75.4697C405.762 75.7067 405.759 75.8662 405.755 75.9482ZM411.777 75.7363C411.527 75.7363 411.351 75.652 411.251 75.4834C411.183 75.3649 411.123 75.1188 411.073 74.7451C410.731 74.8317 410.205 74.9912 409.494 75.2236C408.76 75.5153 408.391 75.8753 408.387 76.3037C408.523 76.3538 408.658 76.3903 408.79 76.4131C409.838 76.5999 410.618 76.8574 411.128 77.1855C411.871 77.6641 412.242 78.3568 412.242 79.2637C412.242 80.0065 411.921 80.5671 411.278 80.9453C410.745 81.2552 410.071 81.4102 409.255 81.4102C408.658 81.4102 408.088 81.3099 407.546 81.1094C406.844 80.8542 406.493 80.4987 406.493 80.043C406.493 79.8607 406.564 79.7012 406.705 79.5645C406.851 79.4277 407.015 79.3594 407.197 79.3594C407.339 79.3594 407.521 79.4688 407.744 79.6875C407.854 79.7923 408.1 79.8789 408.482 79.9473C408.788 80.002 409.045 80.0293 409.255 80.0293C409.638 80.0293 409.975 79.9837 410.267 79.8926C410.69 79.7604 410.902 79.5508 410.902 79.2637C410.902 78.6439 410.469 78.2246 409.604 78.0059L408.893 77.8486C408.286 77.7165 407.856 77.5615 407.601 77.3838C407.231 77.1286 407.047 76.7435 407.047 76.2285C407.047 75.276 407.496 74.597 408.394 74.1914C408.667 74.0684 409.104 73.9225 409.706 73.7539C410.308 73.5807 410.738 73.4349 410.998 73.3164C411.185 73.2344 411.388 73.1934 411.606 73.1934C411.802 73.1934 411.962 73.2572 412.085 73.3848C412.213 73.5124 412.276 73.6787 412.276 73.8838C412.276 74.016 412.304 74.2096 412.358 74.4648C412.418 74.7201 412.447 74.9137 412.447 75.0459C412.447 75.251 412.383 75.4173 412.256 75.5449C412.133 75.6725 411.973 75.7363 411.777 75.7363ZM417.178 81.3145C416.148 81.3145 415.314 81.057 414.676 80.542C413.979 79.9723 413.63 79.1748 413.63 78.1494C413.63 76.9645 413.917 75.971 414.491 75.1689C415.116 74.2939 415.95 73.8564 416.993 73.8564C417.75 73.8564 418.367 73.984 418.846 74.2393C419.434 74.5537 419.728 75.0368 419.728 75.6885C419.728 76.1442 419.47 76.5589 418.955 76.9326C418.727 77.0967 418.244 77.3519 417.506 77.6982L414.895 78.9355C415.15 79.3138 415.466 79.5986 415.845 79.79C416.228 79.9814 416.672 80.0771 417.178 80.0771C417.492 80.0771 417.861 80.0179 418.285 79.8994C418.823 79.749 419.169 79.5531 419.324 79.3115C419.479 79.0654 419.646 78.9424 419.823 78.9424C419.983 78.9424 420.124 79.0039 420.247 79.127C420.375 79.2454 420.438 79.3844 420.438 79.5439C420.438 80.0498 420.031 80.485 419.215 80.8496C418.518 81.1595 417.839 81.3145 417.178 81.3145ZM416.993 75.0869C416.437 75.0869 415.975 75.3034 415.605 75.7363C415.236 76.1647 414.961 76.8118 414.778 77.6777L416.877 76.6797C417.702 76.2786 418.29 75.93 418.641 75.6338C418.249 75.2692 417.7 75.0869 416.993 75.0869ZM430.453 75.7363C430.202 75.7363 430.027 75.652 429.927 75.4834C429.858 75.3649 429.799 75.1188 429.749 74.7451C429.407 74.8317 428.881 74.9912 428.17 75.2236C427.436 75.5153 427.067 75.8753 427.062 76.3037C427.199 76.3538 427.334 76.3903 427.466 76.4131C428.514 76.5999 429.293 76.8574 429.804 77.1855C430.547 77.6641 430.918 78.3568 430.918 79.2637C430.918 80.0065 430.597 80.5671 429.954 80.9453C429.421 81.2552 428.746 81.4102 427.931 81.4102C427.334 81.4102 426.764 81.3099 426.222 81.1094C425.52 80.8542 425.169 80.4987 425.169 80.043C425.169 79.8607 425.24 79.7012 425.381 79.5645C425.527 79.4277 425.691 79.3594 425.873 79.3594C426.014 79.3594 426.197 79.4688 426.42 79.6875C426.529 79.7923 426.775 79.8789 427.158 79.9473C427.464 80.002 427.721 80.0293 427.931 80.0293C428.313 80.0293 428.651 79.9837 428.942 79.8926C429.366 79.7604 429.578 79.5508 429.578 79.2637C429.578 78.6439 429.145 78.2246 428.279 78.0059L427.568 77.8486C426.962 77.7165 426.532 77.5615 426.276 77.3838C425.907 77.1286 425.723 76.7435 425.723 76.2285C425.723 75.276 426.172 74.597 427.069 74.1914C427.343 74.0684 427.78 73.9225 428.382 73.7539C428.983 73.5807 429.414 73.4349 429.674 73.3164C429.861 73.2344 430.063 73.1934 430.282 73.1934C430.478 73.1934 430.638 73.2572 430.761 73.3848C430.888 73.5124 430.952 73.6787 430.952 73.8838C430.952 74.016 430.979 74.2096 431.034 74.4648C431.093 74.7201 431.123 74.9137 431.123 75.0459C431.123 75.251 431.059 75.4173 430.932 75.5449C430.809 75.6725 430.649 75.7363 430.453 75.7363ZM437.234 75.1758C437.139 75.1758 437.025 75.1712 436.893 75.1621C436.765 75.153 436.653 75.1484 436.558 75.1484C436.453 75.1484 436.143 75.1826 435.628 75.251L435.758 79.291L435.765 79.5918L435.771 79.9404C435.79 80.9385 435.55 81.4375 435.054 81.4375C434.871 81.4375 434.712 81.3783 434.575 81.2598C434.443 81.1413 434.377 80.9932 434.377 80.8154C434.377 80.6423 434.384 80.3825 434.397 80.0361C434.411 79.6898 434.418 79.43 434.418 79.2568L434.281 75.2646C433.949 75.251 433.443 75.2122 432.764 75.1484C432.358 75.0938 432.155 74.8682 432.155 74.4717C432.155 74.2712 432.217 74.1048 432.34 73.9727C432.463 73.8405 432.62 73.7744 432.812 73.7744L434.247 73.8906C434.247 73.6582 434.236 73.3483 434.213 72.9609C434.195 72.569 434.186 72.2865 434.186 72.1133C434.186 71.9219 434.252 71.7646 434.384 71.6416C434.516 71.514 434.678 71.4502 434.869 71.4502C435.279 71.4502 435.519 71.7852 435.587 72.4551C435.601 72.6237 435.607 72.8265 435.607 73.0635L435.594 73.46L435.587 73.8838C436.152 73.8109 436.476 73.7744 436.558 73.7744C437.032 73.7744 437.341 73.7972 437.487 73.8428C437.765 73.9339 437.904 74.1481 437.904 74.4854C437.904 74.6859 437.84 74.8522 437.713 74.9844C437.59 75.112 437.43 75.1758 437.234 75.1758ZM444.583 75.9482C444.551 76.5179 444.323 76.8027 443.899 76.8027C443.507 76.8027 443.312 76.5771 443.312 76.126C443.312 76.0394 443.305 75.8799 443.291 75.6475L443.271 75.0732C442.55 75.1598 441.974 75.3626 441.541 75.6816C441.135 75.9779 440.798 76.4245 440.529 77.0215L440.543 80.7676C440.543 81.2279 440.317 81.458 439.866 81.458C439.465 81.458 439.265 81.2279 439.265 80.7676V75.9688C439.265 75.8184 439.269 75.5928 439.278 75.292C439.292 74.9912 439.299 74.7656 439.299 74.6152C439.299 74.1549 439.499 73.9248 439.9 73.9248C440.347 73.9248 440.573 74.3031 440.577 75.0596C441.452 74.2165 442.423 73.7949 443.489 73.7949C443.858 73.7949 444.134 73.9339 444.316 74.2119C444.499 74.4899 444.59 74.9092 444.59 75.4697C444.59 75.7067 444.588 75.8662 444.583 75.9482ZM451.569 77.0078C451.569 77.3359 451.572 77.8281 451.576 78.4844C451.581 79.1406 451.583 79.6328 451.583 79.9609C451.583 80.0612 451.59 80.2139 451.604 80.4189C451.622 80.624 451.631 80.7767 451.631 80.877C451.631 81.0729 451.565 81.2324 451.433 81.3555C451.3 81.4831 451.139 81.5469 450.947 81.5469C450.596 81.5469 450.373 81.3304 450.277 80.8975C449.708 81.1937 449.051 81.3418 448.309 81.3418C447.712 81.3418 447.217 81.2096 446.825 80.9453C446.392 80.6536 446.135 80.2275 446.053 79.667C445.875 78.4593 445.786 77.3838 445.786 76.4404C445.786 75.8161 445.854 75.1051 445.991 74.3076C446.055 73.9111 446.271 73.7129 446.641 73.7129C446.837 73.7129 447.001 73.7767 447.133 73.9043C447.265 74.0273 447.331 74.1868 447.331 74.3828C447.331 74.5924 447.297 74.9274 447.229 75.3877C447.165 75.848 447.133 76.1989 447.133 76.4404C447.133 77.2015 447.158 77.8532 447.208 78.3955C447.258 78.9378 447.333 79.373 447.434 79.7012C447.584 79.7832 447.732 79.847 447.878 79.8926C448.024 79.9336 448.167 79.9541 448.309 79.9541C448.919 79.9541 449.564 79.8561 450.243 79.6602L450.236 78.2725L450.223 76.9463C450.223 75.9619 450.266 75.1074 450.353 74.3828C450.403 73.9635 450.624 73.7539 451.016 73.7539C451.212 73.7539 451.376 73.8177 451.508 73.9453C451.64 74.0729 451.701 74.2324 451.692 74.4238L451.569 77.0078ZM456.368 81.4307C455.434 81.4307 454.655 81.1481 454.03 80.583C453.374 79.9906 453.046 79.209 453.046 78.2383C453.046 77.3132 453.354 76.3584 453.969 75.374C454.652 74.2803 455.423 73.7334 456.279 73.7334C456.726 73.7334 457.225 73.8382 457.776 74.0479C458.474 74.3167 458.822 74.6449 458.822 75.0322C458.822 75.2054 458.765 75.3604 458.651 75.4971C458.537 75.6292 458.396 75.6953 458.228 75.6953C458.095 75.6953 457.979 75.6566 457.879 75.5791C457.783 75.4971 457.69 75.4173 457.599 75.3398C457.33 75.1257 456.89 75.0186 456.279 75.0186C455.814 75.0186 455.354 75.4333 454.898 76.2627C454.484 77.0238 454.276 77.6823 454.276 78.2383C454.276 78.8398 454.481 79.3138 454.892 79.6602C455.274 79.9837 455.767 80.1455 456.368 80.1455C456.642 80.1455 456.933 80.0726 457.243 79.9268L458.036 79.5029C458.173 79.43 458.271 79.3936 458.33 79.3936C458.499 79.3936 458.645 79.4619 458.768 79.5986C458.891 79.7308 458.952 79.8835 458.952 80.0566C458.952 80.3893 458.601 80.7106 457.899 81.0205C457.284 81.2939 456.774 81.4307 456.368 81.4307ZM465.043 75.1758C464.947 75.1758 464.833 75.1712 464.701 75.1621C464.574 75.153 464.462 75.1484 464.366 75.1484C464.261 75.1484 463.951 75.1826 463.437 75.251L463.566 79.291L463.573 79.5918L463.58 79.9404C463.598 80.9385 463.359 81.4375 462.862 81.4375C462.68 81.4375 462.521 81.3783 462.384 81.2598C462.252 81.1413 462.186 80.9932 462.186 80.8154C462.186 80.6423 462.192 80.3825 462.206 80.0361C462.22 79.6898 462.227 79.43 462.227 79.2568L462.09 75.2646C461.757 75.251 461.251 75.2122 460.572 75.1484C460.167 75.0938 459.964 74.8682 459.964 74.4717C459.964 74.2712 460.025 74.1048 460.148 73.9727C460.271 73.8405 460.429 73.7744 460.62 73.7744L462.056 73.8906C462.056 73.6582 462.044 73.3483 462.021 72.9609C462.003 72.569 461.994 72.2865 461.994 72.1133C461.994 71.9219 462.06 71.7646 462.192 71.6416C462.325 71.514 462.486 71.4502 462.678 71.4502C463.088 71.4502 463.327 71.7852 463.396 72.4551C463.409 72.6237 463.416 72.8265 463.416 73.0635L463.402 73.46L463.396 73.8838C463.961 73.8109 464.284 73.7744 464.366 73.7744C464.84 73.7744 465.15 73.7972 465.296 73.8428C465.574 73.9339 465.713 74.1481 465.713 74.4854C465.713 74.6859 465.649 74.8522 465.521 74.9844C465.398 75.112 465.239 75.1758 465.043 75.1758ZM472.651 77.0078C472.651 77.3359 472.654 77.8281 472.658 78.4844C472.663 79.1406 472.665 79.6328 472.665 79.9609C472.665 80.0612 472.672 80.2139 472.686 80.4189C472.704 80.624 472.713 80.7767 472.713 80.877C472.713 81.0729 472.647 81.2324 472.515 81.3555C472.382 81.4831 472.221 81.5469 472.029 81.5469C471.678 81.5469 471.455 81.3304 471.359 80.8975C470.79 81.1937 470.133 81.3418 469.391 81.3418C468.794 81.3418 468.299 81.2096 467.907 80.9453C467.474 80.6536 467.217 80.2275 467.135 79.667C466.957 78.4593 466.868 77.3838 466.868 76.4404C466.868 75.8161 466.937 75.1051 467.073 74.3076C467.137 73.9111 467.354 73.7129 467.723 73.7129C467.919 73.7129 468.083 73.7767 468.215 73.9043C468.347 74.0273 468.413 74.1868 468.413 74.3828C468.413 74.5924 468.379 74.9274 468.311 75.3877C468.247 75.848 468.215 76.1989 468.215 76.4404C468.215 77.2015 468.24 77.8532 468.29 78.3955C468.34 78.9378 468.415 79.373 468.516 79.7012C468.666 79.7832 468.814 79.847 468.96 79.8926C469.106 79.9336 469.249 79.9541 469.391 79.9541C470.001 79.9541 470.646 79.8561 471.325 79.6602L471.318 78.2725L471.305 76.9463C471.305 75.9619 471.348 75.1074 471.435 74.3828C471.485 73.9635 471.706 73.7539 472.098 73.7539C472.294 73.7539 472.458 73.8177 472.59 73.9453C472.722 74.0729 472.784 74.2324 472.774 74.4238L472.651 77.0078ZM479.679 75.9482C479.647 76.5179 479.419 76.8027 478.995 76.8027C478.603 76.8027 478.407 76.5771 478.407 76.126C478.407 76.0394 478.4 75.8799 478.387 75.6475L478.366 75.0732C477.646 75.1598 477.07 75.3626 476.637 75.6816C476.231 75.9779 475.894 76.4245 475.625 77.0215L475.639 80.7676C475.639 81.2279 475.413 81.458 474.962 81.458C474.561 81.458 474.36 81.2279 474.36 80.7676V75.9688C474.36 75.8184 474.365 75.5928 474.374 75.292C474.388 74.9912 474.395 74.7656 474.395 74.6152C474.395 74.1549 474.595 73.9248 474.996 73.9248C475.443 73.9248 475.668 74.3031 475.673 75.0596C476.548 74.2165 477.519 73.7949 478.585 73.7949C478.954 73.7949 479.23 73.9339 479.412 74.2119C479.594 74.4899 479.686 74.9092 479.686 75.4697C479.686 75.7067 479.683 75.8662 479.679 75.9482ZM484.279 81.3145C483.249 81.3145 482.415 81.057 481.777 80.542C481.08 79.9723 480.731 79.1748 480.731 78.1494C480.731 76.9645 481.019 75.971 481.593 75.1689C482.217 74.2939 483.051 73.8564 484.095 73.8564C484.851 73.8564 485.469 73.984 485.947 74.2393C486.535 74.5537 486.829 75.0368 486.829 75.6885C486.829 76.1442 486.572 76.5589 486.057 76.9326C485.829 77.0967 485.346 77.3519 484.607 77.6982L481.996 78.9355C482.251 79.3138 482.568 79.5986 482.946 79.79C483.329 79.9814 483.773 80.0771 484.279 80.0771C484.594 80.0771 484.963 80.0179 485.387 79.8994C485.924 79.749 486.271 79.5531 486.426 79.3115C486.581 79.0654 486.747 78.9424 486.925 78.9424C487.084 78.9424 487.226 79.0039 487.349 79.127C487.476 79.2454 487.54 79.3844 487.54 79.5439C487.54 80.0498 487.132 80.485 486.316 80.8496C485.619 81.1595 484.94 81.3145 484.279 81.3145ZM484.095 75.0869C483.539 75.0869 483.076 75.3034 482.707 75.7363C482.338 76.1647 482.062 76.8118 481.88 77.6777L483.979 76.6797C484.803 76.2786 485.391 75.93 485.742 75.6338C485.35 75.2692 484.801 75.0869 484.095 75.0869Z" fill="#515354"/>
<rect x="377" y="64" width="33.9218" height="1.54186" rx="0.770931" fill="#515354"/>
</g>
<defs>
<clipPath id="clip0_180_289">
<rect width="727" height="463.908" fill="white"/>
</clipPath>
</defs>
</svg>
